%TF.GenerationSoftware,KiCad,Pcbnew,(6.0.8)*%
%TF.CreationDate,2024-10-24T13:16:37+05:30*%
%TF.ProjectId,mp3_player,6d70335f-706c-4617-9965-722e6b696361,rev?*%
%TF.SameCoordinates,Original*%
%TF.FileFunction,Drillmap*%
%TF.FilePolarity,Positive*%
%FSLAX45Y45*%
G04 Gerber Fmt 4.5, Leading zero omitted, Abs format (unit mm)*
G04 Created by KiCad (PCBNEW (6.0.8)) date 2024-10-24 13:16:37*
%MOMM*%
%LPD*%
G01*
G04 APERTURE LIST*
%ADD10C,0.101600*%
%ADD11C,0.200000*%
%ADD12C,0.119888*%
G04 APERTURE END LIST*
D10*
X12750800Y-7533693D02*
X16560800Y-7533693D01*
X16560800Y-7533693D02*
X16560800Y-12065000D01*
X16560800Y-12065000D02*
X12750800Y-12065000D01*
X12750800Y-12065000D02*
X12750800Y-7533693D01*
D11*
D12*
X13275056Y-7844790D02*
X13394944Y-7964678D01*
X13394944Y-7844790D02*
X13275056Y-7964678D01*
X13275056Y-8544814D02*
X13394944Y-8664702D01*
X13394944Y-8544814D02*
X13275056Y-8664702D01*
D11*
X13003339Y-12380556D02*
X13003339Y-12180556D01*
X13050958Y-12180556D01*
X13079529Y-12190080D01*
X13098577Y-12209128D01*
X13108101Y-12228175D01*
X13117625Y-12266270D01*
X13117625Y-12294842D01*
X13108101Y-12332937D01*
X13098577Y-12351985D01*
X13079529Y-12371032D01*
X13050958Y-12380556D01*
X13003339Y-12380556D01*
X13203339Y-12380556D02*
X13203339Y-12247223D01*
X13203339Y-12285318D02*
X13212863Y-12266270D01*
X13222387Y-12256747D01*
X13241434Y-12247223D01*
X13260482Y-12247223D01*
X13327148Y-12380556D02*
X13327148Y-12247223D01*
X13327148Y-12180556D02*
X13317625Y-12190080D01*
X13327148Y-12199604D01*
X13336672Y-12190080D01*
X13327148Y-12180556D01*
X13327148Y-12199604D01*
X13450958Y-12380556D02*
X13431910Y-12371032D01*
X13422387Y-12351985D01*
X13422387Y-12180556D01*
X13555720Y-12380556D02*
X13536672Y-12371032D01*
X13527148Y-12351985D01*
X13527148Y-12180556D01*
X13784291Y-12380556D02*
X13784291Y-12180556D01*
X13850958Y-12323413D01*
X13917625Y-12180556D01*
X13917625Y-12380556D01*
X14098577Y-12380556D02*
X14098577Y-12275794D01*
X14089053Y-12256747D01*
X14070006Y-12247223D01*
X14031910Y-12247223D01*
X14012863Y-12256747D01*
X14098577Y-12371032D02*
X14079529Y-12380556D01*
X14031910Y-12380556D01*
X14012863Y-12371032D01*
X14003339Y-12351985D01*
X14003339Y-12332937D01*
X14012863Y-12313889D01*
X14031910Y-12304366D01*
X14079529Y-12304366D01*
X14098577Y-12294842D01*
X14193815Y-12247223D02*
X14193815Y-12447223D01*
X14193815Y-12256747D02*
X14212863Y-12247223D01*
X14250958Y-12247223D01*
X14270006Y-12256747D01*
X14279529Y-12266270D01*
X14289053Y-12285318D01*
X14289053Y-12342461D01*
X14279529Y-12361508D01*
X14270006Y-12371032D01*
X14250958Y-12380556D01*
X14212863Y-12380556D01*
X14193815Y-12371032D01*
X14374768Y-12361508D02*
X14384291Y-12371032D01*
X14374768Y-12380556D01*
X14365244Y-12371032D01*
X14374768Y-12361508D01*
X14374768Y-12380556D01*
X14374768Y-12256747D02*
X14384291Y-12266270D01*
X14374768Y-12275794D01*
X14365244Y-12266270D01*
X14374768Y-12256747D01*
X14374768Y-12275794D01*
D12*
X12625832Y-12650136D02*
X12745720Y-12770024D01*
X12745720Y-12650136D02*
X12625832Y-12770024D01*
D11*
X13108101Y-12800556D02*
X12993815Y-12800556D01*
X13050958Y-12800556D02*
X13050958Y-12600556D01*
X13031910Y-12629128D01*
X13012863Y-12648175D01*
X12993815Y-12657699D01*
X13193815Y-12781508D02*
X13203339Y-12791032D01*
X13193815Y-12800556D01*
X13184291Y-12791032D01*
X13193815Y-12781508D01*
X13193815Y-12800556D01*
X13393815Y-12800556D02*
X13279529Y-12800556D01*
X13336672Y-12800556D02*
X13336672Y-12600556D01*
X13317625Y-12629128D01*
X13298577Y-12648175D01*
X13279529Y-12657699D01*
X13489053Y-12800556D02*
X13527148Y-12800556D01*
X13546196Y-12791032D01*
X13555720Y-12781508D01*
X13574768Y-12752937D01*
X13584291Y-12714842D01*
X13584291Y-12638651D01*
X13574768Y-12619604D01*
X13565244Y-12610080D01*
X13546196Y-12600556D01*
X13508101Y-12600556D01*
X13489053Y-12610080D01*
X13479529Y-12619604D01*
X13470006Y-12638651D01*
X13470006Y-12686270D01*
X13479529Y-12705318D01*
X13489053Y-12714842D01*
X13508101Y-12724366D01*
X13546196Y-12724366D01*
X13565244Y-12714842D01*
X13574768Y-12705318D01*
X13584291Y-12686270D01*
X13679529Y-12800556D02*
X13717625Y-12800556D01*
X13736672Y-12791032D01*
X13746196Y-12781508D01*
X13765244Y-12752937D01*
X13774768Y-12714842D01*
X13774768Y-12638651D01*
X13765244Y-12619604D01*
X13755720Y-12610080D01*
X13736672Y-12600556D01*
X13698577Y-12600556D01*
X13679529Y-12610080D01*
X13670006Y-12619604D01*
X13660482Y-12638651D01*
X13660482Y-12686270D01*
X13670006Y-12705318D01*
X13679529Y-12714842D01*
X13698577Y-12724366D01*
X13736672Y-12724366D01*
X13755720Y-12714842D01*
X13765244Y-12705318D01*
X13774768Y-12686270D01*
X13860482Y-12800556D02*
X13860482Y-12667223D01*
X13860482Y-12686270D02*
X13870006Y-12676747D01*
X13889053Y-12667223D01*
X13917625Y-12667223D01*
X13936672Y-12676747D01*
X13946196Y-12695794D01*
X13946196Y-12800556D01*
X13946196Y-12695794D02*
X13955720Y-12676747D01*
X13974768Y-12667223D01*
X14003339Y-12667223D01*
X14022387Y-12676747D01*
X14031910Y-12695794D01*
X14031910Y-12800556D01*
X14127148Y-12800556D02*
X14127148Y-12667223D01*
X14127148Y-12686270D02*
X14136672Y-12676747D01*
X14155720Y-12667223D01*
X14184291Y-12667223D01*
X14203339Y-12676747D01*
X14212863Y-12695794D01*
X14212863Y-12800556D01*
X14212863Y-12695794D02*
X14222387Y-12676747D01*
X14241434Y-12667223D01*
X14270006Y-12667223D01*
X14289053Y-12676747D01*
X14298577Y-12695794D01*
X14298577Y-12800556D01*
X14689053Y-12591032D02*
X14517625Y-12848175D01*
X14946196Y-12600556D02*
X14965244Y-12600556D01*
X14984291Y-12610080D01*
X14993815Y-12619604D01*
X15003339Y-12638651D01*
X15012863Y-12676747D01*
X15012863Y-12724366D01*
X15003339Y-12762461D01*
X14993815Y-12781508D01*
X14984291Y-12791032D01*
X14965244Y-12800556D01*
X14946196Y-12800556D01*
X14927148Y-12791032D01*
X14917625Y-12781508D01*
X14908101Y-12762461D01*
X14898577Y-12724366D01*
X14898577Y-12676747D01*
X14908101Y-12638651D01*
X14917625Y-12619604D01*
X14927148Y-12610080D01*
X14946196Y-12600556D01*
X15098577Y-12781508D02*
X15108101Y-12791032D01*
X15098577Y-12800556D01*
X15089053Y-12791032D01*
X15098577Y-12781508D01*
X15098577Y-12800556D01*
X15231910Y-12600556D02*
X15250958Y-12600556D01*
X15270006Y-12610080D01*
X15279529Y-12619604D01*
X15289053Y-12638651D01*
X15298577Y-12676747D01*
X15298577Y-12724366D01*
X15289053Y-12762461D01*
X15279529Y-12781508D01*
X15270006Y-12791032D01*
X15250958Y-12800556D01*
X15231910Y-12800556D01*
X15212863Y-12791032D01*
X15203339Y-12781508D01*
X15193815Y-12762461D01*
X15184291Y-12724366D01*
X15184291Y-12676747D01*
X15193815Y-12638651D01*
X15203339Y-12619604D01*
X15212863Y-12610080D01*
X15231910Y-12600556D01*
X15470006Y-12667223D02*
X15470006Y-12800556D01*
X15422387Y-12591032D02*
X15374768Y-12733889D01*
X15498577Y-12733889D01*
X15555720Y-12600556D02*
X15689053Y-12600556D01*
X15603339Y-12800556D01*
X15755720Y-12619604D02*
X15765244Y-12610080D01*
X15784291Y-12600556D01*
X15831910Y-12600556D01*
X15850958Y-12610080D01*
X15860482Y-12619604D01*
X15870006Y-12638651D01*
X15870006Y-12657699D01*
X15860482Y-12686270D01*
X15746196Y-12800556D01*
X15870006Y-12800556D01*
X15946196Y-12600556D02*
X15946196Y-12638651D01*
X16022387Y-12600556D02*
X16022387Y-12638651D01*
X16317625Y-12876747D02*
X16308101Y-12867223D01*
X16289053Y-12838651D01*
X16279529Y-12819604D01*
X16270006Y-12791032D01*
X16260482Y-12743413D01*
X16260482Y-12705318D01*
X16270006Y-12657699D01*
X16279529Y-12629128D01*
X16289053Y-12610080D01*
X16308101Y-12581508D01*
X16317625Y-12571985D01*
X16384291Y-12619604D02*
X16393815Y-12610080D01*
X16412863Y-12600556D01*
X16460482Y-12600556D01*
X16479529Y-12610080D01*
X16489053Y-12619604D01*
X16498577Y-12638651D01*
X16498577Y-12657699D01*
X16489053Y-12686270D01*
X16374768Y-12800556D01*
X16498577Y-12800556D01*
X16736672Y-12800556D02*
X16736672Y-12600556D01*
X16822387Y-12800556D02*
X16822387Y-12695794D01*
X16812863Y-12676747D01*
X16793815Y-12667223D01*
X16765244Y-12667223D01*
X16746196Y-12676747D01*
X16736672Y-12686270D01*
X16946196Y-12800556D02*
X16927149Y-12791032D01*
X16917625Y-12781508D01*
X16908101Y-12762461D01*
X16908101Y-12705318D01*
X16917625Y-12686270D01*
X16927149Y-12676747D01*
X16946196Y-12667223D01*
X16974768Y-12667223D01*
X16993815Y-12676747D01*
X17003339Y-12686270D01*
X17012863Y-12705318D01*
X17012863Y-12762461D01*
X17003339Y-12781508D01*
X16993815Y-12791032D01*
X16974768Y-12800556D01*
X16946196Y-12800556D01*
X17127149Y-12800556D02*
X17108101Y-12791032D01*
X17098577Y-12771985D01*
X17098577Y-12600556D01*
X17279530Y-12791032D02*
X17260482Y-12800556D01*
X17222387Y-12800556D01*
X17203339Y-12791032D01*
X17193815Y-12771985D01*
X17193815Y-12695794D01*
X17203339Y-12676747D01*
X17222387Y-12667223D01*
X17260482Y-12667223D01*
X17279530Y-12676747D01*
X17289053Y-12695794D01*
X17289053Y-12714842D01*
X17193815Y-12733889D01*
X17365244Y-12791032D02*
X17384291Y-12800556D01*
X17422387Y-12800556D01*
X17441434Y-12791032D01*
X17450958Y-12771985D01*
X17450958Y-12762461D01*
X17441434Y-12743413D01*
X17422387Y-12733889D01*
X17393815Y-12733889D01*
X17374768Y-12724366D01*
X17365244Y-12705318D01*
X17365244Y-12695794D01*
X17374768Y-12676747D01*
X17393815Y-12667223D01*
X17422387Y-12667223D01*
X17441434Y-12676747D01*
X17517625Y-12876747D02*
X17527149Y-12867223D01*
X17546196Y-12838651D01*
X17555720Y-12819604D01*
X17565244Y-12791032D01*
X17574768Y-12743413D01*
X17574768Y-12705318D01*
X17565244Y-12657699D01*
X17555720Y-12629128D01*
X17546196Y-12610080D01*
X17527149Y-12581508D01*
X17517625Y-12571985D01*
X17879530Y-12876747D02*
X17870006Y-12867223D01*
X17850958Y-12838651D01*
X17841434Y-12819604D01*
X17831910Y-12791032D01*
X17822387Y-12743413D01*
X17822387Y-12705318D01*
X17831910Y-12657699D01*
X17841434Y-12629128D01*
X17850958Y-12610080D01*
X17870006Y-12581508D01*
X17879530Y-12571985D01*
X17955720Y-12667223D02*
X17955720Y-12800556D01*
X17955720Y-12686270D02*
X17965244Y-12676747D01*
X17984291Y-12667223D01*
X18012863Y-12667223D01*
X18031910Y-12676747D01*
X18041434Y-12695794D01*
X18041434Y-12800556D01*
X18165244Y-12800556D02*
X18146196Y-12791032D01*
X18136672Y-12781508D01*
X18127149Y-12762461D01*
X18127149Y-12705318D01*
X18136672Y-12686270D01*
X18146196Y-12676747D01*
X18165244Y-12667223D01*
X18193815Y-12667223D01*
X18212863Y-12676747D01*
X18222387Y-12686270D01*
X18231910Y-12705318D01*
X18231910Y-12762461D01*
X18222387Y-12781508D01*
X18212863Y-12791032D01*
X18193815Y-12800556D01*
X18165244Y-12800556D01*
X18289053Y-12667223D02*
X18365244Y-12667223D01*
X18317625Y-12600556D02*
X18317625Y-12771985D01*
X18327149Y-12791032D01*
X18346196Y-12800556D01*
X18365244Y-12800556D01*
X18584291Y-12667223D02*
X18584291Y-12867223D01*
X18584291Y-12676747D02*
X18603339Y-12667223D01*
X18641434Y-12667223D01*
X18660482Y-12676747D01*
X18670006Y-12686270D01*
X18679530Y-12705318D01*
X18679530Y-12762461D01*
X18670006Y-12781508D01*
X18660482Y-12791032D01*
X18641434Y-12800556D01*
X18603339Y-12800556D01*
X18584291Y-12791032D01*
X18793815Y-12800556D02*
X18774768Y-12791032D01*
X18765244Y-12771985D01*
X18765244Y-12600556D01*
X18955720Y-12800556D02*
X18955720Y-12695794D01*
X18946196Y-12676747D01*
X18927149Y-12667223D01*
X18889053Y-12667223D01*
X18870006Y-12676747D01*
X18955720Y-12791032D02*
X18936672Y-12800556D01*
X18889053Y-12800556D01*
X18870006Y-12791032D01*
X18860482Y-12771985D01*
X18860482Y-12752937D01*
X18870006Y-12733889D01*
X18889053Y-12724366D01*
X18936672Y-12724366D01*
X18955720Y-12714842D01*
X19022387Y-12667223D02*
X19098577Y-12667223D01*
X19050958Y-12600556D02*
X19050958Y-12771985D01*
X19060482Y-12791032D01*
X19079530Y-12800556D01*
X19098577Y-12800556D01*
X19241434Y-12791032D02*
X19222387Y-12800556D01*
X19184291Y-12800556D01*
X19165244Y-12791032D01*
X19155720Y-12771985D01*
X19155720Y-12695794D01*
X19165244Y-12676747D01*
X19184291Y-12667223D01*
X19222387Y-12667223D01*
X19241434Y-12676747D01*
X19250958Y-12695794D01*
X19250958Y-12714842D01*
X19155720Y-12733889D01*
X19422387Y-12800556D02*
X19422387Y-12600556D01*
X19422387Y-12791032D02*
X19403339Y-12800556D01*
X19365244Y-12800556D01*
X19346196Y-12791032D01*
X19336672Y-12781508D01*
X19327149Y-12762461D01*
X19327149Y-12705318D01*
X19336672Y-12686270D01*
X19346196Y-12676747D01*
X19365244Y-12667223D01*
X19403339Y-12667223D01*
X19422387Y-12676747D01*
X19498577Y-12876747D02*
X19508101Y-12867223D01*
X19527149Y-12838651D01*
X19536672Y-12819604D01*
X19546196Y-12791032D01*
X19555720Y-12743413D01*
X19555720Y-12705318D01*
X19546196Y-12657699D01*
X19536672Y-12629128D01*
X19527149Y-12610080D01*
X19508101Y-12581508D01*
X19498577Y-12571985D01*
M02*
