M48
; DRILL file {KiCad (6.0.8)} date Thu Oct 24 13:16:21 2024
; FORMAT={-:-/ absolute / metric / decimal}
; #@! TF.CreationDate,2024-10-24T13:16:21+05:30
; #@! TF.GenerationSoftware,Kicad,Pcbnew,(6.0.8)
; #@! TF.FileFunction,Plated,1,2,PTH
FMAT,2
METRIC
; #@! TA.AperFunction,Plated,PTH,ComponentDrill
T1C0.762
; #@! TA.AperFunction,Plated,PTH,ComponentDrill
T2C1.067
; #@! TA.AperFunction,Plated,PTH,ComponentDrill
T3C1.200
%
G90
G05
T1
X140.087Y-78.737
X140.087Y-81.277
X140.087Y-83.817
X140.087Y-86.357
X140.087Y-88.897
X140.087Y-91.437
X140.087Y-93.977
X140.087Y-96.517
X157.546Y-78.737
X157.546Y-81.277
X157.546Y-83.817
X157.546Y-86.357
X157.546Y-88.897
X157.546Y-91.437
X157.546Y-93.977
X157.546Y-96.517
T2
X149.353Y-81.069
X149.353Y-84.879
X154.117Y-81.094
X154.117Y-84.904
T3
X133.402Y-107.986
X133.402Y-112.486
X139.902Y-107.986
X139.902Y-112.486
X143.562Y-103.922
X143.562Y-108.422
X150.062Y-103.922
X150.062Y-108.422
X154.23Y-107.986
X154.23Y-112.486
X160.73Y-107.986
X160.73Y-112.486
T0
M30
