%TF.GenerationSoftware,KiCad,Pcbnew,(6.0.8)*%
%TF.CreationDate,2024-10-24T13:16:37+05:30*%
%TF.ProjectId,mp3_player,6d70335f-706c-4617-9965-722e6b696361,rev?*%
%TF.SameCoordinates,Original*%
%TF.FileFunction,Drillmap*%
%TF.FilePolarity,Positive*%
%FSLAX45Y45*%
G04 Gerber Fmt 4.5, Leading zero omitted, Abs format (unit mm)*
G04 Created by KiCad (PCBNEW (6.0.8)) date 2024-10-24 13:16:37*
%MOMM*%
%LPD*%
G01*
G04 APERTURE LIST*
%ADD10C,0.101600*%
%ADD11C,0.200000*%
%ADD12C,0.076200*%
%ADD13C,0.106680*%
%ADD14C,0.120000*%
G04 APERTURE END LIST*
D10*
X12750800Y-7533693D02*
X16560800Y-7533693D01*
X16560800Y-7533693D02*
X16560800Y-12065000D01*
X16560800Y-12065000D02*
X12750800Y-12065000D01*
X12750800Y-12065000D02*
X12750800Y-7533693D01*
D11*
D12*
X13970550Y-7835635D02*
X14046750Y-7911835D01*
X14046750Y-7835635D02*
X13970550Y-7911835D01*
X13970550Y-8089635D02*
X14046750Y-8165835D01*
X14046750Y-8089635D02*
X13970550Y-8165835D01*
X13970550Y-8343635D02*
X14046750Y-8419835D01*
X14046750Y-8343635D02*
X13970550Y-8419835D01*
X13970550Y-8597635D02*
X14046750Y-8673835D01*
X14046750Y-8597635D02*
X13970550Y-8673835D01*
X13970550Y-8851635D02*
X14046750Y-8927835D01*
X14046750Y-8851635D02*
X13970550Y-8927835D01*
X13970550Y-9105635D02*
X14046750Y-9181835D01*
X14046750Y-9105635D02*
X13970550Y-9181835D01*
X13970550Y-9359635D02*
X14046750Y-9435835D01*
X14046750Y-9359635D02*
X13970550Y-9435835D01*
X13970550Y-9613635D02*
X14046750Y-9689835D01*
X14046750Y-9613635D02*
X13970550Y-9689835D01*
X15716550Y-7835635D02*
X15792750Y-7911835D01*
X15792750Y-7835635D02*
X15716550Y-7911835D01*
X15716550Y-8089635D02*
X15792750Y-8165835D01*
X15792750Y-8089635D02*
X15716550Y-8165835D01*
X15716550Y-8343635D02*
X15792750Y-8419835D01*
X15792750Y-8343635D02*
X15716550Y-8419835D01*
X15716550Y-8597635D02*
X15792750Y-8673835D01*
X15792750Y-8597635D02*
X15716550Y-8673835D01*
X15716550Y-8851635D02*
X15792750Y-8927835D01*
X15792750Y-8851635D02*
X15716550Y-8927835D01*
X15716550Y-9105635D02*
X15792750Y-9181835D01*
X15792750Y-9105635D02*
X15716550Y-9181835D01*
X15716550Y-9359635D02*
X15792750Y-9435835D01*
X15792750Y-9359635D02*
X15716550Y-9435835D01*
X15716550Y-9613635D02*
X15792750Y-9689835D01*
X15792750Y-9613635D02*
X15716550Y-9689835D01*
D13*
X14988598Y-8106872D02*
G75*
G03*
X14988598Y-8106872I-53340J0D01*
G01*
X14988598Y-8487872D02*
G75*
G03*
X14988598Y-8487872I-53340J0D01*
G01*
X15465087Y-8109421D02*
G75*
G03*
X15465087Y-8109421I-53340J0D01*
G01*
X15465087Y-8490421D02*
G75*
G03*
X15465087Y-8490421I-53340J0D01*
G01*
D14*
X13340200Y-10738600D02*
X13340200Y-10858600D01*
X13280200Y-10798600D02*
X13400200Y-10798600D01*
X13340200Y-11188600D02*
X13340200Y-11308600D01*
X13280200Y-11248600D02*
X13400200Y-11248600D01*
X13990200Y-10738600D02*
X13990200Y-10858600D01*
X13930200Y-10798600D02*
X14050200Y-10798600D01*
X13990200Y-11188600D02*
X13990200Y-11308600D01*
X13930200Y-11248600D02*
X14050200Y-11248600D01*
X14356200Y-10332200D02*
X14356200Y-10452200D01*
X14296200Y-10392200D02*
X14416200Y-10392200D01*
X14356200Y-10782200D02*
X14356200Y-10902200D01*
X14296200Y-10842200D02*
X14416200Y-10842200D01*
X15006200Y-10332200D02*
X15006200Y-10452200D01*
X14946200Y-10392200D02*
X15066200Y-10392200D01*
X15006200Y-10782200D02*
X15006200Y-10902200D01*
X14946200Y-10842200D02*
X15066200Y-10842200D01*
X15423000Y-10738600D02*
X15423000Y-10858600D01*
X15363000Y-10798600D02*
X15483000Y-10798600D01*
X15423000Y-11188600D02*
X15423000Y-11308600D01*
X15363000Y-11248600D02*
X15483000Y-11248600D01*
X16073000Y-10738600D02*
X16073000Y-10858600D01*
X16013000Y-10798600D02*
X16133000Y-10798600D01*
X16073000Y-11188600D02*
X16073000Y-11308600D01*
X16013000Y-11248600D02*
X16133000Y-11248600D01*
D11*
X13003339Y-12380556D02*
X13003339Y-12180556D01*
X13050958Y-12180556D01*
X13079529Y-12190080D01*
X13098577Y-12209128D01*
X13108101Y-12228175D01*
X13117625Y-12266270D01*
X13117625Y-12294842D01*
X13108101Y-12332937D01*
X13098577Y-12351985D01*
X13079529Y-12371032D01*
X13050958Y-12380556D01*
X13003339Y-12380556D01*
X13203339Y-12380556D02*
X13203339Y-12247223D01*
X13203339Y-12285318D02*
X13212863Y-12266270D01*
X13222387Y-12256747D01*
X13241434Y-12247223D01*
X13260482Y-12247223D01*
X13327148Y-12380556D02*
X13327148Y-12247223D01*
X13327148Y-12180556D02*
X13317625Y-12190080D01*
X13327148Y-12199604D01*
X13336672Y-12190080D01*
X13327148Y-12180556D01*
X13327148Y-12199604D01*
X13450958Y-12380556D02*
X13431910Y-12371032D01*
X13422387Y-12351985D01*
X13422387Y-12180556D01*
X13555720Y-12380556D02*
X13536672Y-12371032D01*
X13527148Y-12351985D01*
X13527148Y-12180556D01*
X13784291Y-12380556D02*
X13784291Y-12180556D01*
X13850958Y-12323413D01*
X13917625Y-12180556D01*
X13917625Y-12380556D01*
X14098577Y-12380556D02*
X14098577Y-12275794D01*
X14089053Y-12256747D01*
X14070006Y-12247223D01*
X14031910Y-12247223D01*
X14012863Y-12256747D01*
X14098577Y-12371032D02*
X14079529Y-12380556D01*
X14031910Y-12380556D01*
X14012863Y-12371032D01*
X14003339Y-12351985D01*
X14003339Y-12332937D01*
X14012863Y-12313889D01*
X14031910Y-12304366D01*
X14079529Y-12304366D01*
X14098577Y-12294842D01*
X14193815Y-12247223D02*
X14193815Y-12447223D01*
X14193815Y-12256747D02*
X14212863Y-12247223D01*
X14250958Y-12247223D01*
X14270006Y-12256747D01*
X14279529Y-12266270D01*
X14289053Y-12285318D01*
X14289053Y-12342461D01*
X14279529Y-12361508D01*
X14270006Y-12371032D01*
X14250958Y-12380556D01*
X14212863Y-12380556D01*
X14193815Y-12371032D01*
X14374768Y-12361508D02*
X14384291Y-12371032D01*
X14374768Y-12380556D01*
X14365244Y-12371032D01*
X14374768Y-12361508D01*
X14374768Y-12380556D01*
X14374768Y-12256747D02*
X14384291Y-12266270D01*
X14374768Y-12275794D01*
X14365244Y-12266270D01*
X14374768Y-12256747D01*
X14374768Y-12275794D01*
D12*
X12669520Y-12671980D02*
X12745720Y-12748180D01*
X12745720Y-12671980D02*
X12669520Y-12748180D01*
D11*
X13041434Y-12600556D02*
X13060482Y-12600556D01*
X13079529Y-12610080D01*
X13089053Y-12619604D01*
X13098577Y-12638651D01*
X13108101Y-12676747D01*
X13108101Y-12724366D01*
X13098577Y-12762461D01*
X13089053Y-12781508D01*
X13079529Y-12791032D01*
X13060482Y-12800556D01*
X13041434Y-12800556D01*
X13022387Y-12791032D01*
X13012863Y-12781508D01*
X13003339Y-12762461D01*
X12993815Y-12724366D01*
X12993815Y-12676747D01*
X13003339Y-12638651D01*
X13012863Y-12619604D01*
X13022387Y-12610080D01*
X13041434Y-12600556D01*
X13193815Y-12781508D02*
X13203339Y-12791032D01*
X13193815Y-12800556D01*
X13184291Y-12791032D01*
X13193815Y-12781508D01*
X13193815Y-12800556D01*
X13270006Y-12600556D02*
X13403339Y-12600556D01*
X13317625Y-12800556D01*
X13565244Y-12600556D02*
X13527148Y-12600556D01*
X13508101Y-12610080D01*
X13498577Y-12619604D01*
X13479529Y-12648175D01*
X13470006Y-12686270D01*
X13470006Y-12762461D01*
X13479529Y-12781508D01*
X13489053Y-12791032D01*
X13508101Y-12800556D01*
X13546196Y-12800556D01*
X13565244Y-12791032D01*
X13574768Y-12781508D01*
X13584291Y-12762461D01*
X13584291Y-12714842D01*
X13574768Y-12695794D01*
X13565244Y-12686270D01*
X13546196Y-12676747D01*
X13508101Y-12676747D01*
X13489053Y-12686270D01*
X13479529Y-12695794D01*
X13470006Y-12714842D01*
X13660482Y-12619604D02*
X13670006Y-12610080D01*
X13689053Y-12600556D01*
X13736672Y-12600556D01*
X13755720Y-12610080D01*
X13765244Y-12619604D01*
X13774768Y-12638651D01*
X13774768Y-12657699D01*
X13765244Y-12686270D01*
X13650958Y-12800556D01*
X13774768Y-12800556D01*
X13860482Y-12800556D02*
X13860482Y-12667223D01*
X13860482Y-12686270D02*
X13870006Y-12676747D01*
X13889053Y-12667223D01*
X13917625Y-12667223D01*
X13936672Y-12676747D01*
X13946196Y-12695794D01*
X13946196Y-12800556D01*
X13946196Y-12695794D02*
X13955720Y-12676747D01*
X13974768Y-12667223D01*
X14003339Y-12667223D01*
X14022387Y-12676747D01*
X14031910Y-12695794D01*
X14031910Y-12800556D01*
X14127148Y-12800556D02*
X14127148Y-12667223D01*
X14127148Y-12686270D02*
X14136672Y-12676747D01*
X14155720Y-12667223D01*
X14184291Y-12667223D01*
X14203339Y-12676747D01*
X14212863Y-12695794D01*
X14212863Y-12800556D01*
X14212863Y-12695794D02*
X14222387Y-12676747D01*
X14241434Y-12667223D01*
X14270006Y-12667223D01*
X14289053Y-12676747D01*
X14298577Y-12695794D01*
X14298577Y-12800556D01*
X14689053Y-12591032D02*
X14517625Y-12848175D01*
X14946196Y-12600556D02*
X14965244Y-12600556D01*
X14984291Y-12610080D01*
X14993815Y-12619604D01*
X15003339Y-12638651D01*
X15012863Y-12676747D01*
X15012863Y-12724366D01*
X15003339Y-12762461D01*
X14993815Y-12781508D01*
X14984291Y-12791032D01*
X14965244Y-12800556D01*
X14946196Y-12800556D01*
X14927148Y-12791032D01*
X14917625Y-12781508D01*
X14908101Y-12762461D01*
X14898577Y-12724366D01*
X14898577Y-12676747D01*
X14908101Y-12638651D01*
X14917625Y-12619604D01*
X14927148Y-12610080D01*
X14946196Y-12600556D01*
X15098577Y-12781508D02*
X15108101Y-12791032D01*
X15098577Y-12800556D01*
X15089053Y-12791032D01*
X15098577Y-12781508D01*
X15098577Y-12800556D01*
X15231910Y-12600556D02*
X15250958Y-12600556D01*
X15270006Y-12610080D01*
X15279529Y-12619604D01*
X15289053Y-12638651D01*
X15298577Y-12676747D01*
X15298577Y-12724366D01*
X15289053Y-12762461D01*
X15279529Y-12781508D01*
X15270006Y-12791032D01*
X15250958Y-12800556D01*
X15231910Y-12800556D01*
X15212863Y-12791032D01*
X15203339Y-12781508D01*
X15193815Y-12762461D01*
X15184291Y-12724366D01*
X15184291Y-12676747D01*
X15193815Y-12638651D01*
X15203339Y-12619604D01*
X15212863Y-12610080D01*
X15231910Y-12600556D01*
X15365244Y-12600556D02*
X15489053Y-12600556D01*
X15422387Y-12676747D01*
X15450958Y-12676747D01*
X15470006Y-12686270D01*
X15479529Y-12695794D01*
X15489053Y-12714842D01*
X15489053Y-12762461D01*
X15479529Y-12781508D01*
X15470006Y-12791032D01*
X15450958Y-12800556D01*
X15393815Y-12800556D01*
X15374768Y-12791032D01*
X15365244Y-12781508D01*
X15612863Y-12600556D02*
X15631910Y-12600556D01*
X15650958Y-12610080D01*
X15660482Y-12619604D01*
X15670006Y-12638651D01*
X15679529Y-12676747D01*
X15679529Y-12724366D01*
X15670006Y-12762461D01*
X15660482Y-12781508D01*
X15650958Y-12791032D01*
X15631910Y-12800556D01*
X15612863Y-12800556D01*
X15593815Y-12791032D01*
X15584291Y-12781508D01*
X15574768Y-12762461D01*
X15565244Y-12724366D01*
X15565244Y-12676747D01*
X15574768Y-12638651D01*
X15584291Y-12619604D01*
X15593815Y-12610080D01*
X15612863Y-12600556D01*
X15803339Y-12600556D02*
X15822387Y-12600556D01*
X15841434Y-12610080D01*
X15850958Y-12619604D01*
X15860482Y-12638651D01*
X15870006Y-12676747D01*
X15870006Y-12724366D01*
X15860482Y-12762461D01*
X15850958Y-12781508D01*
X15841434Y-12791032D01*
X15822387Y-12800556D01*
X15803339Y-12800556D01*
X15784291Y-12791032D01*
X15774768Y-12781508D01*
X15765244Y-12762461D01*
X15755720Y-12724366D01*
X15755720Y-12676747D01*
X15765244Y-12638651D01*
X15774768Y-12619604D01*
X15784291Y-12610080D01*
X15803339Y-12600556D01*
X15946196Y-12600556D02*
X15946196Y-12638651D01*
X16022387Y-12600556D02*
X16022387Y-12638651D01*
X16317625Y-12876747D02*
X16308101Y-12867223D01*
X16289053Y-12838651D01*
X16279529Y-12819604D01*
X16270006Y-12791032D01*
X16260482Y-12743413D01*
X16260482Y-12705318D01*
X16270006Y-12657699D01*
X16279529Y-12629128D01*
X16289053Y-12610080D01*
X16308101Y-12581508D01*
X16317625Y-12571985D01*
X16498577Y-12800556D02*
X16384291Y-12800556D01*
X16441434Y-12800556D02*
X16441434Y-12600556D01*
X16422387Y-12629128D01*
X16403339Y-12648175D01*
X16384291Y-12657699D01*
X16670006Y-12600556D02*
X16631910Y-12600556D01*
X16612863Y-12610080D01*
X16603339Y-12619604D01*
X16584291Y-12648175D01*
X16574768Y-12686270D01*
X16574768Y-12762461D01*
X16584291Y-12781508D01*
X16593815Y-12791032D01*
X16612863Y-12800556D01*
X16650958Y-12800556D01*
X16670006Y-12791032D01*
X16679529Y-12781508D01*
X16689053Y-12762461D01*
X16689053Y-12714842D01*
X16679529Y-12695794D01*
X16670006Y-12686270D01*
X16650958Y-12676747D01*
X16612863Y-12676747D01*
X16593815Y-12686270D01*
X16584291Y-12695794D01*
X16574768Y-12714842D01*
X16927149Y-12800556D02*
X16927149Y-12600556D01*
X17012863Y-12800556D02*
X17012863Y-12695794D01*
X17003339Y-12676747D01*
X16984291Y-12667223D01*
X16955720Y-12667223D01*
X16936672Y-12676747D01*
X16927149Y-12686270D01*
X17136672Y-12800556D02*
X17117625Y-12791032D01*
X17108101Y-12781508D01*
X17098577Y-12762461D01*
X17098577Y-12705318D01*
X17108101Y-12686270D01*
X17117625Y-12676747D01*
X17136672Y-12667223D01*
X17165244Y-12667223D01*
X17184291Y-12676747D01*
X17193815Y-12686270D01*
X17203339Y-12705318D01*
X17203339Y-12762461D01*
X17193815Y-12781508D01*
X17184291Y-12791032D01*
X17165244Y-12800556D01*
X17136672Y-12800556D01*
X17317625Y-12800556D02*
X17298577Y-12791032D01*
X17289053Y-12771985D01*
X17289053Y-12600556D01*
X17470006Y-12791032D02*
X17450958Y-12800556D01*
X17412863Y-12800556D01*
X17393815Y-12791032D01*
X17384291Y-12771985D01*
X17384291Y-12695794D01*
X17393815Y-12676747D01*
X17412863Y-12667223D01*
X17450958Y-12667223D01*
X17470006Y-12676747D01*
X17479530Y-12695794D01*
X17479530Y-12714842D01*
X17384291Y-12733889D01*
X17555720Y-12791032D02*
X17574768Y-12800556D01*
X17612863Y-12800556D01*
X17631910Y-12791032D01*
X17641434Y-12771985D01*
X17641434Y-12762461D01*
X17631910Y-12743413D01*
X17612863Y-12733889D01*
X17584291Y-12733889D01*
X17565244Y-12724366D01*
X17555720Y-12705318D01*
X17555720Y-12695794D01*
X17565244Y-12676747D01*
X17584291Y-12667223D01*
X17612863Y-12667223D01*
X17631910Y-12676747D01*
X17708101Y-12876747D02*
X17717625Y-12867223D01*
X17736672Y-12838651D01*
X17746196Y-12819604D01*
X17755720Y-12791032D01*
X17765244Y-12743413D01*
X17765244Y-12705318D01*
X17755720Y-12657699D01*
X17746196Y-12629128D01*
X17736672Y-12610080D01*
X17717625Y-12581508D01*
X17708101Y-12571985D01*
D13*
X12745720Y-12974080D02*
G75*
G03*
X12745720Y-12974080I-53340J0D01*
G01*
D11*
X13108101Y-13064556D02*
X12993815Y-13064556D01*
X13050958Y-13064556D02*
X13050958Y-12864556D01*
X13031910Y-12893128D01*
X13012863Y-12912175D01*
X12993815Y-12921699D01*
X13193815Y-13045508D02*
X13203339Y-13055032D01*
X13193815Y-13064556D01*
X13184291Y-13055032D01*
X13193815Y-13045508D01*
X13193815Y-13064556D01*
X13327148Y-12864556D02*
X13346196Y-12864556D01*
X13365244Y-12874080D01*
X13374768Y-12883604D01*
X13384291Y-12902651D01*
X13393815Y-12940747D01*
X13393815Y-12988366D01*
X13384291Y-13026461D01*
X13374768Y-13045508D01*
X13365244Y-13055032D01*
X13346196Y-13064556D01*
X13327148Y-13064556D01*
X13308101Y-13055032D01*
X13298577Y-13045508D01*
X13289053Y-13026461D01*
X13279529Y-12988366D01*
X13279529Y-12940747D01*
X13289053Y-12902651D01*
X13298577Y-12883604D01*
X13308101Y-12874080D01*
X13327148Y-12864556D01*
X13565244Y-12864556D02*
X13527148Y-12864556D01*
X13508101Y-12874080D01*
X13498577Y-12883604D01*
X13479529Y-12912175D01*
X13470006Y-12950270D01*
X13470006Y-13026461D01*
X13479529Y-13045508D01*
X13489053Y-13055032D01*
X13508101Y-13064556D01*
X13546196Y-13064556D01*
X13565244Y-13055032D01*
X13574768Y-13045508D01*
X13584291Y-13026461D01*
X13584291Y-12978842D01*
X13574768Y-12959794D01*
X13565244Y-12950270D01*
X13546196Y-12940747D01*
X13508101Y-12940747D01*
X13489053Y-12950270D01*
X13479529Y-12959794D01*
X13470006Y-12978842D01*
X13650958Y-12864556D02*
X13784291Y-12864556D01*
X13698577Y-13064556D01*
X13860482Y-13064556D02*
X13860482Y-12931223D01*
X13860482Y-12950270D02*
X13870006Y-12940747D01*
X13889053Y-12931223D01*
X13917625Y-12931223D01*
X13936672Y-12940747D01*
X13946196Y-12959794D01*
X13946196Y-13064556D01*
X13946196Y-12959794D02*
X13955720Y-12940747D01*
X13974768Y-12931223D01*
X14003339Y-12931223D01*
X14022387Y-12940747D01*
X14031910Y-12959794D01*
X14031910Y-13064556D01*
X14127148Y-13064556D02*
X14127148Y-12931223D01*
X14127148Y-12950270D02*
X14136672Y-12940747D01*
X14155720Y-12931223D01*
X14184291Y-12931223D01*
X14203339Y-12940747D01*
X14212863Y-12959794D01*
X14212863Y-13064556D01*
X14212863Y-12959794D02*
X14222387Y-12940747D01*
X14241434Y-12931223D01*
X14270006Y-12931223D01*
X14289053Y-12940747D01*
X14298577Y-12959794D01*
X14298577Y-13064556D01*
X14689053Y-12855032D02*
X14517625Y-13112175D01*
X14946196Y-12864556D02*
X14965244Y-12864556D01*
X14984291Y-12874080D01*
X14993815Y-12883604D01*
X15003339Y-12902651D01*
X15012863Y-12940747D01*
X15012863Y-12988366D01*
X15003339Y-13026461D01*
X14993815Y-13045508D01*
X14984291Y-13055032D01*
X14965244Y-13064556D01*
X14946196Y-13064556D01*
X14927148Y-13055032D01*
X14917625Y-13045508D01*
X14908101Y-13026461D01*
X14898577Y-12988366D01*
X14898577Y-12940747D01*
X14908101Y-12902651D01*
X14917625Y-12883604D01*
X14927148Y-12874080D01*
X14946196Y-12864556D01*
X15098577Y-13045508D02*
X15108101Y-13055032D01*
X15098577Y-13064556D01*
X15089053Y-13055032D01*
X15098577Y-13045508D01*
X15098577Y-13064556D01*
X15231910Y-12864556D02*
X15250958Y-12864556D01*
X15270006Y-12874080D01*
X15279529Y-12883604D01*
X15289053Y-12902651D01*
X15298577Y-12940747D01*
X15298577Y-12988366D01*
X15289053Y-13026461D01*
X15279529Y-13045508D01*
X15270006Y-13055032D01*
X15250958Y-13064556D01*
X15231910Y-13064556D01*
X15212863Y-13055032D01*
X15203339Y-13045508D01*
X15193815Y-13026461D01*
X15184291Y-12988366D01*
X15184291Y-12940747D01*
X15193815Y-12902651D01*
X15203339Y-12883604D01*
X15212863Y-12874080D01*
X15231910Y-12864556D01*
X15470006Y-12931223D02*
X15470006Y-13064556D01*
X15422387Y-12855032D02*
X15374768Y-12997889D01*
X15498577Y-12997889D01*
X15565244Y-12883604D02*
X15574768Y-12874080D01*
X15593815Y-12864556D01*
X15641434Y-12864556D01*
X15660482Y-12874080D01*
X15670006Y-12883604D01*
X15679529Y-12902651D01*
X15679529Y-12921699D01*
X15670006Y-12950270D01*
X15555720Y-13064556D01*
X15679529Y-13064556D01*
X15803339Y-12864556D02*
X15822387Y-12864556D01*
X15841434Y-12874080D01*
X15850958Y-12883604D01*
X15860482Y-12902651D01*
X15870006Y-12940747D01*
X15870006Y-12988366D01*
X15860482Y-13026461D01*
X15850958Y-13045508D01*
X15841434Y-13055032D01*
X15822387Y-13064556D01*
X15803339Y-13064556D01*
X15784291Y-13055032D01*
X15774768Y-13045508D01*
X15765244Y-13026461D01*
X15755720Y-12988366D01*
X15755720Y-12940747D01*
X15765244Y-12902651D01*
X15774768Y-12883604D01*
X15784291Y-12874080D01*
X15803339Y-12864556D01*
X15946196Y-12864556D02*
X15946196Y-12902651D01*
X16022387Y-12864556D02*
X16022387Y-12902651D01*
X16317625Y-13140747D02*
X16308101Y-13131223D01*
X16289053Y-13102651D01*
X16279529Y-13083604D01*
X16270006Y-13055032D01*
X16260482Y-13007413D01*
X16260482Y-12969318D01*
X16270006Y-12921699D01*
X16279529Y-12893128D01*
X16289053Y-12874080D01*
X16308101Y-12845508D01*
X16317625Y-12835985D01*
X16479529Y-12931223D02*
X16479529Y-13064556D01*
X16431910Y-12855032D02*
X16384291Y-12997889D01*
X16508101Y-12997889D01*
X16736672Y-13064556D02*
X16736672Y-12864556D01*
X16822387Y-13064556D02*
X16822387Y-12959794D01*
X16812863Y-12940747D01*
X16793815Y-12931223D01*
X16765244Y-12931223D01*
X16746196Y-12940747D01*
X16736672Y-12950270D01*
X16946196Y-13064556D02*
X16927149Y-13055032D01*
X16917625Y-13045508D01*
X16908101Y-13026461D01*
X16908101Y-12969318D01*
X16917625Y-12950270D01*
X16927149Y-12940747D01*
X16946196Y-12931223D01*
X16974768Y-12931223D01*
X16993815Y-12940747D01*
X17003339Y-12950270D01*
X17012863Y-12969318D01*
X17012863Y-13026461D01*
X17003339Y-13045508D01*
X16993815Y-13055032D01*
X16974768Y-13064556D01*
X16946196Y-13064556D01*
X17127149Y-13064556D02*
X17108101Y-13055032D01*
X17098577Y-13035985D01*
X17098577Y-12864556D01*
X17279530Y-13055032D02*
X17260482Y-13064556D01*
X17222387Y-13064556D01*
X17203339Y-13055032D01*
X17193815Y-13035985D01*
X17193815Y-12959794D01*
X17203339Y-12940747D01*
X17222387Y-12931223D01*
X17260482Y-12931223D01*
X17279530Y-12940747D01*
X17289053Y-12959794D01*
X17289053Y-12978842D01*
X17193815Y-12997889D01*
X17365244Y-13055032D02*
X17384291Y-13064556D01*
X17422387Y-13064556D01*
X17441434Y-13055032D01*
X17450958Y-13035985D01*
X17450958Y-13026461D01*
X17441434Y-13007413D01*
X17422387Y-12997889D01*
X17393815Y-12997889D01*
X17374768Y-12988366D01*
X17365244Y-12969318D01*
X17365244Y-12959794D01*
X17374768Y-12940747D01*
X17393815Y-12931223D01*
X17422387Y-12931223D01*
X17441434Y-12940747D01*
X17517625Y-13140747D02*
X17527149Y-13131223D01*
X17546196Y-13102651D01*
X17555720Y-13083604D01*
X17565244Y-13055032D01*
X17574768Y-13007413D01*
X17574768Y-12969318D01*
X17565244Y-12921699D01*
X17555720Y-12893128D01*
X17546196Y-12874080D01*
X17527149Y-12845508D01*
X17517625Y-12835985D01*
D14*
X12685720Y-13178080D02*
X12685720Y-13298080D01*
X12625720Y-13238080D02*
X12745720Y-13238080D01*
D11*
X13108101Y-13328556D02*
X12993815Y-13328556D01*
X13050958Y-13328556D02*
X13050958Y-13128556D01*
X13031910Y-13157128D01*
X13012863Y-13176175D01*
X12993815Y-13185699D01*
X13193815Y-13309508D02*
X13203339Y-13319032D01*
X13193815Y-13328556D01*
X13184291Y-13319032D01*
X13193815Y-13309508D01*
X13193815Y-13328556D01*
X13279529Y-13147604D02*
X13289053Y-13138080D01*
X13308101Y-13128556D01*
X13355720Y-13128556D01*
X13374768Y-13138080D01*
X13384291Y-13147604D01*
X13393815Y-13166651D01*
X13393815Y-13185699D01*
X13384291Y-13214270D01*
X13270006Y-13328556D01*
X13393815Y-13328556D01*
X13517625Y-13128556D02*
X13536672Y-13128556D01*
X13555720Y-13138080D01*
X13565244Y-13147604D01*
X13574768Y-13166651D01*
X13584291Y-13204747D01*
X13584291Y-13252366D01*
X13574768Y-13290461D01*
X13565244Y-13309508D01*
X13555720Y-13319032D01*
X13536672Y-13328556D01*
X13517625Y-13328556D01*
X13498577Y-13319032D01*
X13489053Y-13309508D01*
X13479529Y-13290461D01*
X13470006Y-13252366D01*
X13470006Y-13204747D01*
X13479529Y-13166651D01*
X13489053Y-13147604D01*
X13498577Y-13138080D01*
X13517625Y-13128556D01*
X13708101Y-13128556D02*
X13727148Y-13128556D01*
X13746196Y-13138080D01*
X13755720Y-13147604D01*
X13765244Y-13166651D01*
X13774768Y-13204747D01*
X13774768Y-13252366D01*
X13765244Y-13290461D01*
X13755720Y-13309508D01*
X13746196Y-13319032D01*
X13727148Y-13328556D01*
X13708101Y-13328556D01*
X13689053Y-13319032D01*
X13679529Y-13309508D01*
X13670006Y-13290461D01*
X13660482Y-13252366D01*
X13660482Y-13204747D01*
X13670006Y-13166651D01*
X13679529Y-13147604D01*
X13689053Y-13138080D01*
X13708101Y-13128556D01*
X13860482Y-13328556D02*
X13860482Y-13195223D01*
X13860482Y-13214270D02*
X13870006Y-13204747D01*
X13889053Y-13195223D01*
X13917625Y-13195223D01*
X13936672Y-13204747D01*
X13946196Y-13223794D01*
X13946196Y-13328556D01*
X13946196Y-13223794D02*
X13955720Y-13204747D01*
X13974768Y-13195223D01*
X14003339Y-13195223D01*
X14022387Y-13204747D01*
X14031910Y-13223794D01*
X14031910Y-13328556D01*
X14127148Y-13328556D02*
X14127148Y-13195223D01*
X14127148Y-13214270D02*
X14136672Y-13204747D01*
X14155720Y-13195223D01*
X14184291Y-13195223D01*
X14203339Y-13204747D01*
X14212863Y-13223794D01*
X14212863Y-13328556D01*
X14212863Y-13223794D02*
X14222387Y-13204747D01*
X14241434Y-13195223D01*
X14270006Y-13195223D01*
X14289053Y-13204747D01*
X14298577Y-13223794D01*
X14298577Y-13328556D01*
X14689053Y-13119032D02*
X14517625Y-13376175D01*
X14946196Y-13128556D02*
X14965244Y-13128556D01*
X14984291Y-13138080D01*
X14993815Y-13147604D01*
X15003339Y-13166651D01*
X15012863Y-13204747D01*
X15012863Y-13252366D01*
X15003339Y-13290461D01*
X14993815Y-13309508D01*
X14984291Y-13319032D01*
X14965244Y-13328556D01*
X14946196Y-13328556D01*
X14927148Y-13319032D01*
X14917625Y-13309508D01*
X14908101Y-13290461D01*
X14898577Y-13252366D01*
X14898577Y-13204747D01*
X14908101Y-13166651D01*
X14917625Y-13147604D01*
X14927148Y-13138080D01*
X14946196Y-13128556D01*
X15098577Y-13309508D02*
X15108101Y-13319032D01*
X15098577Y-13328556D01*
X15089053Y-13319032D01*
X15098577Y-13309508D01*
X15098577Y-13328556D01*
X15231910Y-13128556D02*
X15250958Y-13128556D01*
X15270006Y-13138080D01*
X15279529Y-13147604D01*
X15289053Y-13166651D01*
X15298577Y-13204747D01*
X15298577Y-13252366D01*
X15289053Y-13290461D01*
X15279529Y-13309508D01*
X15270006Y-13319032D01*
X15250958Y-13328556D01*
X15231910Y-13328556D01*
X15212863Y-13319032D01*
X15203339Y-13309508D01*
X15193815Y-13290461D01*
X15184291Y-13252366D01*
X15184291Y-13204747D01*
X15193815Y-13166651D01*
X15203339Y-13147604D01*
X15212863Y-13138080D01*
X15231910Y-13128556D01*
X15470006Y-13195223D02*
X15470006Y-13328556D01*
X15422387Y-13119032D02*
X15374768Y-13261889D01*
X15498577Y-13261889D01*
X15555720Y-13128556D02*
X15689053Y-13128556D01*
X15603339Y-13328556D01*
X15755720Y-13147604D02*
X15765244Y-13138080D01*
X15784291Y-13128556D01*
X15831910Y-13128556D01*
X15850958Y-13138080D01*
X15860482Y-13147604D01*
X15870006Y-13166651D01*
X15870006Y-13185699D01*
X15860482Y-13214270D01*
X15746196Y-13328556D01*
X15870006Y-13328556D01*
X15946196Y-13128556D02*
X15946196Y-13166651D01*
X16022387Y-13128556D02*
X16022387Y-13166651D01*
X16317625Y-13404747D02*
X16308101Y-13395223D01*
X16289053Y-13366651D01*
X16279529Y-13347604D01*
X16270006Y-13319032D01*
X16260482Y-13271413D01*
X16260482Y-13233318D01*
X16270006Y-13185699D01*
X16279529Y-13157128D01*
X16289053Y-13138080D01*
X16308101Y-13109508D01*
X16317625Y-13099985D01*
X16498577Y-13328556D02*
X16384291Y-13328556D01*
X16441434Y-13328556D02*
X16441434Y-13128556D01*
X16422387Y-13157128D01*
X16403339Y-13176175D01*
X16384291Y-13185699D01*
X16574768Y-13147604D02*
X16584291Y-13138080D01*
X16603339Y-13128556D01*
X16650958Y-13128556D01*
X16670006Y-13138080D01*
X16679529Y-13147604D01*
X16689053Y-13166651D01*
X16689053Y-13185699D01*
X16679529Y-13214270D01*
X16565244Y-13328556D01*
X16689053Y-13328556D01*
X16927149Y-13328556D02*
X16927149Y-13128556D01*
X17012863Y-13328556D02*
X17012863Y-13223794D01*
X17003339Y-13204747D01*
X16984291Y-13195223D01*
X16955720Y-13195223D01*
X16936672Y-13204747D01*
X16927149Y-13214270D01*
X17136672Y-13328556D02*
X17117625Y-13319032D01*
X17108101Y-13309508D01*
X17098577Y-13290461D01*
X17098577Y-13233318D01*
X17108101Y-13214270D01*
X17117625Y-13204747D01*
X17136672Y-13195223D01*
X17165244Y-13195223D01*
X17184291Y-13204747D01*
X17193815Y-13214270D01*
X17203339Y-13233318D01*
X17203339Y-13290461D01*
X17193815Y-13309508D01*
X17184291Y-13319032D01*
X17165244Y-13328556D01*
X17136672Y-13328556D01*
X17317625Y-13328556D02*
X17298577Y-13319032D01*
X17289053Y-13299985D01*
X17289053Y-13128556D01*
X17470006Y-13319032D02*
X17450958Y-13328556D01*
X17412863Y-13328556D01*
X17393815Y-13319032D01*
X17384291Y-13299985D01*
X17384291Y-13223794D01*
X17393815Y-13204747D01*
X17412863Y-13195223D01*
X17450958Y-13195223D01*
X17470006Y-13204747D01*
X17479530Y-13223794D01*
X17479530Y-13242842D01*
X17384291Y-13261889D01*
X17555720Y-13319032D02*
X17574768Y-13328556D01*
X17612863Y-13328556D01*
X17631910Y-13319032D01*
X17641434Y-13299985D01*
X17641434Y-13290461D01*
X17631910Y-13271413D01*
X17612863Y-13261889D01*
X17584291Y-13261889D01*
X17565244Y-13252366D01*
X17555720Y-13233318D01*
X17555720Y-13223794D01*
X17565244Y-13204747D01*
X17584291Y-13195223D01*
X17612863Y-13195223D01*
X17631910Y-13204747D01*
X17708101Y-13404747D02*
X17717625Y-13395223D01*
X17736672Y-13366651D01*
X17746196Y-13347604D01*
X17755720Y-13319032D01*
X17765244Y-13271413D01*
X17765244Y-13233318D01*
X17755720Y-13185699D01*
X17746196Y-13157128D01*
X17736672Y-13138080D01*
X17717625Y-13109508D01*
X17708101Y-13099985D01*
M02*
