%TF.GenerationSoftware,KiCad,Pcbnew,(6.0.8)*%
%TF.CreationDate,2024-10-24T13:15:24+05:30*%
%TF.ProjectId,mp3_player,6d70335f-706c-4617-9965-722e6b696361,rev?*%
%TF.SameCoordinates,Original*%
%TF.FileFunction,Copper,L2,Bot*%
%TF.FilePolarity,Positive*%
%FSLAX46Y46*%
G04 Gerber Fmt 4.6, Leading zero omitted, Abs format (unit mm)*
G04 Created by KiCad (PCBNEW (6.0.8)) date 2024-10-24 13:15:24*
%MOMM*%
%LPD*%
G01*
G04 APERTURE LIST*
G04 Aperture macros list*
%AMRoundRect*
0 Rectangle with rounded corners*
0 $1 Rounding radius*
0 $2 $3 $4 $5 $6 $7 $8 $9 X,Y pos of 4 corners*
0 Add a 4 corners polygon primitive as box body*
4,1,4,$2,$3,$4,$5,$6,$7,$8,$9,$2,$3,0*
0 Add four circle primitives for the rounded corners*
1,1,$1+$1,$2,$3*
1,1,$1+$1,$4,$5*
1,1,$1+$1,$6,$7*
1,1,$1+$1,$8,$9*
0 Add four rect primitives between the rounded corners*
20,1,$1+$1,$2,$3,$4,$5,0*
20,1,$1+$1,$4,$5,$6,$7,0*
20,1,$1+$1,$6,$7,$8,$9,0*
20,1,$1+$1,$8,$9,$2,$3,0*%
G04 Aperture macros list end*
%TA.AperFunction,ComponentPad*%
%ADD10R,2.200000X2.200000*%
%TD*%
%TA.AperFunction,ComponentPad*%
%ADD11C,2.200000*%
%TD*%
%TA.AperFunction,ComponentPad*%
%ADD12R,1.524000X1.524000*%
%TD*%
%TA.AperFunction,ComponentPad*%
%ADD13C,1.524000*%
%TD*%
%TA.AperFunction,SMDPad,CuDef*%
%ADD14RoundRect,0.125000X0.375000X0.585000X-0.375000X0.585000X-0.375000X-0.585000X0.375000X-0.585000X0*%
%TD*%
%TA.AperFunction,ComponentPad*%
%ADD15C,1.600200*%
%TD*%
%TA.AperFunction,SMDPad,CuDef*%
%ADD16R,0.790000X0.930000*%
%TD*%
%TA.AperFunction,Conductor*%
%ADD17C,0.250000*%
%TD*%
G04 APERTURE END LIST*
D10*
%TO.P,S2,1*%
%TO.N,Net-(S2-Pad1)*%
X143562000Y-103922000D03*
D11*
%TO.P,S2,2*%
%TO.N,unconnected-(S2-Pad2)*%
X150062000Y-103922000D03*
%TO.P,S2,3*%
%TO.N,unconnected-(S2-Pad3)*%
X143562000Y-108422000D03*
%TO.P,S2,4*%
%TO.N,GND*%
X150062000Y-108422000D03*
%TD*%
D10*
%TO.P,S3,1*%
%TO.N,Net-(R3-Pad2)*%
X133402000Y-107986000D03*
D11*
%TO.P,S3,2*%
%TO.N,unconnected-(S3-Pad2)*%
X139902000Y-107986000D03*
%TO.P,S3,3*%
%TO.N,unconnected-(S3-Pad3)*%
X133402000Y-112486000D03*
%TO.P,S3,4*%
%TO.N,GND*%
X139902000Y-112486000D03*
%TD*%
D10*
%TO.P,S1,1*%
%TO.N,Net-(S1-Pad1)*%
X160730000Y-112486000D03*
D11*
%TO.P,S1,2*%
%TO.N,unconnected-(S1-Pad2)*%
X154230000Y-112486000D03*
%TO.P,S1,3*%
%TO.N,unconnected-(S1-Pad3)*%
X160730000Y-107986000D03*
%TO.P,S1,4*%
%TO.N,GND*%
X154230000Y-107986000D03*
%TD*%
D12*
%TO.P,U1,1,VCC*%
%TO.N,POWER*%
X140086500Y-78737347D03*
D13*
%TO.P,U1,2,RX*%
%TO.N,Net-(R2-Pad2)*%
X140086500Y-81277347D03*
%TO.P,U1,3,TX*%
%TO.N,Net-(R1-Pad2)*%
X140086500Y-83817347D03*
%TO.P,U1,4,DAC-R*%
%TO.N,Net-(J2-PadRING)*%
X140086500Y-86357347D03*
%TO.P,U1,5,DAC-L*%
%TO.N,Net-(J2-PadTIP)*%
X140086500Y-88897347D03*
%TO.P,U1,6,SPK1*%
%TO.N,unconnected-(U1-Pad6)*%
X140086500Y-91437347D03*
%TO.P,U1,7,GND*%
%TO.N,GND*%
X140086500Y-93977347D03*
%TO.P,U1,8,SPK2*%
%TO.N,unconnected-(U1-Pad8)*%
X140086500Y-96517347D03*
%TO.P,U1,9,IO1*%
%TO.N,Net-(S1-Pad1)*%
X157546500Y-96517347D03*
%TO.P,U1,10,GND*%
%TO.N,GND*%
X157546500Y-93977347D03*
%TO.P,U1,11,IO2*%
%TO.N,Net-(S2-Pad1)*%
X157546500Y-91437347D03*
%TO.P,U1,12,KEY1*%
%TO.N,Net-(R3-Pad1)*%
X157546500Y-88897347D03*
%TO.P,U1,13,KEY2*%
%TO.N,unconnected-(U1-Pad13)*%
X157546500Y-86357347D03*
%TO.P,U1,14,USB+*%
%TO.N,unconnected-(U1-Pad14)*%
X157546500Y-83817347D03*
%TO.P,U1,15,USB-*%
%TO.N,unconnected-(U1-Pad15)*%
X157546500Y-81277347D03*
%TO.P,U1,16,BUSY*%
%TO.N,unconnected-(U1-Pad16)*%
X157546500Y-78737347D03*
%TD*%
D14*
%TO.P,R1,1*%
%TO.N,Net-(J1-Pad1)*%
X145673878Y-84563750D03*
%TO.P,R1,2*%
%TO.N,Net-(R1-Pad2)*%
X143803878Y-84563750D03*
%TD*%
%TO.P,R2,1*%
%TO.N,Net-(J1-Pad2)*%
X145715000Y-81280000D03*
%TO.P,R2,2*%
%TO.N,Net-(R2-Pad2)*%
X143845000Y-81280000D03*
%TD*%
D15*
%TO.P,J3,P$1*%
%TO.N,GND*%
X154117473Y-84904206D03*
%TO.P,J3,P$2*%
%TO.N,POWER*%
X154117473Y-81094206D03*
%TD*%
%TO.P,J1,P$1*%
%TO.N,Net-(J1-Pad1)*%
X149352577Y-84878718D03*
%TO.P,J1,P$2*%
%TO.N,Net-(J1-Pad2)*%
X149352577Y-81068718D03*
%TD*%
D16*
%TO.P,R3,1*%
%TO.N,Net-(R3-Pad1)*%
X148140000Y-90170000D03*
%TO.P,R3,2*%
%TO.N,Net-(R3-Pad2)*%
X146500000Y-90170000D03*
%TD*%
D17*
%TO.N,GND*%
X153794000Y-108422000D02*
X154230000Y-107986000D01*
%TO.N,Net-(J1-Pad1)*%
X145988846Y-84878718D02*
X149352577Y-84878718D01*
X145673878Y-84563750D02*
X145988846Y-84878718D01*
%TO.N,Net-(R1-Pad2)*%
X140086500Y-83817347D02*
X143057475Y-83817347D01*
X143057475Y-83817347D02*
X143803878Y-84563750D01*
%TO.N,Net-(J1-Pad2)*%
X145926282Y-81068718D02*
X149352577Y-81068718D01*
X145715000Y-81280000D02*
X145926282Y-81068718D01*
%TO.N,Net-(R2-Pad2)*%
X143842347Y-81277347D02*
X143845000Y-81280000D01*
X140086500Y-81277347D02*
X143842347Y-81277347D01*
%TO.N,Net-(R3-Pad1)*%
X149412653Y-88897347D02*
X148140000Y-90170000D01*
X157546500Y-88897347D02*
X149412653Y-88897347D01*
%TO.N,Net-(R3-Pad2)*%
X133402000Y-106882000D02*
X133402000Y-107986000D01*
X146500000Y-93784000D02*
X133402000Y-106882000D01*
X146500000Y-90170000D02*
X146500000Y-93784000D01*
%TO.N,Net-(S1-Pad1)*%
X157546500Y-96517347D02*
X162155000Y-101125847D01*
X162155000Y-111061000D02*
X160730000Y-112486000D01*
X162155000Y-101125847D02*
X162155000Y-111061000D01*
%TO.N,Net-(S2-Pad1)*%
X143562000Y-101802000D02*
X153926653Y-91437347D01*
X143562000Y-103922000D02*
X143562000Y-101802000D01*
X153926653Y-91437347D02*
X157546500Y-91437347D01*
%TO.N,POWER*%
X140086500Y-78737347D02*
X151760614Y-78737347D01*
X151760614Y-78737347D02*
X154117473Y-81094206D01*
%TD*%
%TA.AperFunction,Conductor*%
%TO.N,GND*%
G36*
X165041621Y-75865433D02*
G01*
X165088114Y-75919089D01*
X165099500Y-75971431D01*
X165099500Y-120015500D01*
X165079498Y-120083621D01*
X165025842Y-120130114D01*
X164973500Y-120141500D01*
X128142500Y-120141500D01*
X128074379Y-120121498D01*
X128027886Y-120067842D01*
X128016500Y-120015500D01*
X128016500Y-112486000D01*
X131788526Y-112486000D01*
X131808391Y-112738403D01*
X131867495Y-112984591D01*
X131964384Y-113218502D01*
X132096672Y-113434376D01*
X132261102Y-113626898D01*
X132453624Y-113791328D01*
X132669498Y-113923616D01*
X132674068Y-113925509D01*
X132674072Y-113925511D01*
X132898836Y-114018611D01*
X132903409Y-114020505D01*
X132970513Y-114036615D01*
X133144784Y-114078454D01*
X133144790Y-114078455D01*
X133149597Y-114079609D01*
X133402000Y-114099474D01*
X133654403Y-114079609D01*
X133659210Y-114078455D01*
X133659216Y-114078454D01*
X133833487Y-114036615D01*
X133900591Y-114020505D01*
X133905164Y-114018611D01*
X134129928Y-113925511D01*
X134129932Y-113925509D01*
X134134502Y-113923616D01*
X134350275Y-113791390D01*
X138961440Y-113791390D01*
X138967167Y-113799040D01*
X139165506Y-113920583D01*
X139174300Y-113925064D01*
X139398991Y-114018134D01*
X139408376Y-114021183D01*
X139644863Y-114077959D01*
X139654610Y-114079502D01*
X139897070Y-114098584D01*
X139906930Y-114098584D01*
X140149390Y-114079502D01*
X140159137Y-114077959D01*
X140395624Y-114021183D01*
X140405009Y-114018134D01*
X140629700Y-113925064D01*
X140638494Y-113920583D01*
X140833167Y-113801287D01*
X140842627Y-113790830D01*
X140838844Y-113782054D01*
X139914812Y-112858022D01*
X139900868Y-112850408D01*
X139899035Y-112850539D01*
X139892420Y-112854790D01*
X138968200Y-113779010D01*
X138961440Y-113791390D01*
X134350275Y-113791390D01*
X134350376Y-113791328D01*
X134542898Y-113626898D01*
X134707328Y-113434376D01*
X134839616Y-113218502D01*
X134936505Y-112984591D01*
X134995609Y-112738403D01*
X135015086Y-112490930D01*
X138289416Y-112490930D01*
X138308498Y-112733390D01*
X138310041Y-112743137D01*
X138366817Y-112979624D01*
X138369866Y-112989009D01*
X138462936Y-113213700D01*
X138467417Y-113222494D01*
X138586713Y-113417167D01*
X138597170Y-113426627D01*
X138605946Y-113422844D01*
X139529978Y-112498812D01*
X139536356Y-112487132D01*
X140266408Y-112487132D01*
X140266539Y-112488965D01*
X140270790Y-112495580D01*
X141195010Y-113419800D01*
X141207390Y-113426560D01*
X141215040Y-113420833D01*
X141336583Y-113222494D01*
X141341064Y-113213700D01*
X141434134Y-112989009D01*
X141437183Y-112979624D01*
X141493959Y-112743137D01*
X141495502Y-112733390D01*
X141514584Y-112490930D01*
X141514584Y-112486000D01*
X152616526Y-112486000D01*
X152636391Y-112738403D01*
X152695495Y-112984591D01*
X152792384Y-113218502D01*
X152924672Y-113434376D01*
X153089102Y-113626898D01*
X153281624Y-113791328D01*
X153497498Y-113923616D01*
X153502068Y-113925509D01*
X153502072Y-113925511D01*
X153726836Y-114018611D01*
X153731409Y-114020505D01*
X153798513Y-114036615D01*
X153972784Y-114078454D01*
X153972790Y-114078455D01*
X153977597Y-114079609D01*
X154230000Y-114099474D01*
X154482403Y-114079609D01*
X154487210Y-114078455D01*
X154487216Y-114078454D01*
X154661487Y-114036615D01*
X154728591Y-114020505D01*
X154733164Y-114018611D01*
X154957928Y-113925511D01*
X154957932Y-113925509D01*
X154962502Y-113923616D01*
X155178376Y-113791328D01*
X155370898Y-113626898D01*
X155535328Y-113434376D01*
X155667616Y-113218502D01*
X155764505Y-112984591D01*
X155823609Y-112738403D01*
X155843474Y-112486000D01*
X155823609Y-112233597D01*
X155764505Y-111987409D01*
X155697479Y-111825594D01*
X155669511Y-111758072D01*
X155669509Y-111758068D01*
X155667616Y-111753498D01*
X155535328Y-111537624D01*
X155370898Y-111345102D01*
X155178376Y-111180672D01*
X154962502Y-111048384D01*
X154957932Y-111046491D01*
X154957928Y-111046489D01*
X154733164Y-110953389D01*
X154733162Y-110953388D01*
X154728591Y-110951495D01*
X154643968Y-110931179D01*
X154487216Y-110893546D01*
X154487210Y-110893545D01*
X154482403Y-110892391D01*
X154230000Y-110872526D01*
X153977597Y-110892391D01*
X153972790Y-110893545D01*
X153972784Y-110893546D01*
X153816032Y-110931179D01*
X153731409Y-110951495D01*
X153726838Y-110953388D01*
X153726836Y-110953389D01*
X153502072Y-111046489D01*
X153502068Y-111046491D01*
X153497498Y-111048384D01*
X153281624Y-111180672D01*
X153089102Y-111345102D01*
X152924672Y-111537624D01*
X152792384Y-111753498D01*
X152790491Y-111758068D01*
X152790489Y-111758072D01*
X152762521Y-111825594D01*
X152695495Y-111987409D01*
X152636391Y-112233597D01*
X152616526Y-112486000D01*
X141514584Y-112486000D01*
X141514584Y-112481070D01*
X141495502Y-112238610D01*
X141493959Y-112228863D01*
X141437183Y-111992376D01*
X141434134Y-111982991D01*
X141341064Y-111758300D01*
X141336583Y-111749506D01*
X141217287Y-111554833D01*
X141206830Y-111545373D01*
X141198054Y-111549156D01*
X140274022Y-112473188D01*
X140266408Y-112487132D01*
X139536356Y-112487132D01*
X139537592Y-112484868D01*
X139537461Y-112483035D01*
X139533210Y-112476420D01*
X138608990Y-111552200D01*
X138596610Y-111545440D01*
X138588960Y-111551167D01*
X138467417Y-111749506D01*
X138462936Y-111758300D01*
X138369866Y-111982991D01*
X138366817Y-111992376D01*
X138310041Y-112228863D01*
X138308498Y-112238610D01*
X138289416Y-112481070D01*
X138289416Y-112490930D01*
X135015086Y-112490930D01*
X135015474Y-112486000D01*
X134995609Y-112233597D01*
X134936505Y-111987409D01*
X134869479Y-111825594D01*
X134841511Y-111758072D01*
X134841509Y-111758068D01*
X134839616Y-111753498D01*
X134707328Y-111537624D01*
X134542898Y-111345102D01*
X134350959Y-111181170D01*
X138961373Y-111181170D01*
X138965156Y-111189946D01*
X139889188Y-112113978D01*
X139903132Y-112121592D01*
X139904965Y-112121461D01*
X139911580Y-112117210D01*
X140835800Y-111192990D01*
X140842560Y-111180610D01*
X140836833Y-111172960D01*
X140638494Y-111051417D01*
X140629700Y-111046936D01*
X140405009Y-110953866D01*
X140395624Y-110950817D01*
X140159137Y-110894041D01*
X140149390Y-110892498D01*
X139906930Y-110873416D01*
X139897070Y-110873416D01*
X139654610Y-110892498D01*
X139644863Y-110894041D01*
X139408376Y-110950817D01*
X139398991Y-110953866D01*
X139174300Y-111046936D01*
X139165506Y-111051417D01*
X138970833Y-111170713D01*
X138961373Y-111181170D01*
X134350959Y-111181170D01*
X134350376Y-111180672D01*
X134134502Y-111048384D01*
X134129932Y-111046491D01*
X134129928Y-111046489D01*
X133905164Y-110953389D01*
X133905162Y-110953388D01*
X133900591Y-110951495D01*
X133815968Y-110931179D01*
X133659216Y-110893546D01*
X133659210Y-110893545D01*
X133654403Y-110892391D01*
X133402000Y-110872526D01*
X133149597Y-110892391D01*
X133144790Y-110893545D01*
X133144784Y-110893546D01*
X132988032Y-110931179D01*
X132903409Y-110951495D01*
X132898838Y-110953388D01*
X132898836Y-110953389D01*
X132674072Y-111046489D01*
X132674068Y-111046491D01*
X132669498Y-111048384D01*
X132453624Y-111180672D01*
X132261102Y-111345102D01*
X132096672Y-111537624D01*
X131964384Y-111753498D01*
X131962491Y-111758068D01*
X131962489Y-111758072D01*
X131934521Y-111825594D01*
X131867495Y-111987409D01*
X131808391Y-112233597D01*
X131788526Y-112486000D01*
X128016500Y-112486000D01*
X128016500Y-109134134D01*
X131793500Y-109134134D01*
X131800255Y-109196316D01*
X131851385Y-109332705D01*
X131938739Y-109449261D01*
X132055295Y-109536615D01*
X132191684Y-109587745D01*
X132253866Y-109594500D01*
X134550134Y-109594500D01*
X134612316Y-109587745D01*
X134748705Y-109536615D01*
X134865261Y-109449261D01*
X134952615Y-109332705D01*
X135003745Y-109196316D01*
X135010500Y-109134134D01*
X135010500Y-107986000D01*
X138288526Y-107986000D01*
X138308391Y-108238403D01*
X138367495Y-108484591D01*
X138369388Y-108489162D01*
X138369389Y-108489164D01*
X138448079Y-108679137D01*
X138464384Y-108718502D01*
X138596672Y-108934376D01*
X138761102Y-109126898D01*
X138953624Y-109291328D01*
X139169498Y-109423616D01*
X139174068Y-109425509D01*
X139174072Y-109425511D01*
X139398836Y-109518611D01*
X139403409Y-109520505D01*
X139470513Y-109536615D01*
X139644784Y-109578454D01*
X139644790Y-109578455D01*
X139649597Y-109579609D01*
X139902000Y-109599474D01*
X140154403Y-109579609D01*
X140159210Y-109578455D01*
X140159216Y-109578454D01*
X140333487Y-109536615D01*
X140400591Y-109520505D01*
X140405164Y-109518611D01*
X140629928Y-109425511D01*
X140629932Y-109425509D01*
X140634502Y-109423616D01*
X140850376Y-109291328D01*
X141042898Y-109126898D01*
X141207328Y-108934376D01*
X141339616Y-108718502D01*
X141355922Y-108679137D01*
X141434611Y-108489164D01*
X141434612Y-108489162D01*
X141436505Y-108484591D01*
X141451532Y-108422000D01*
X141948526Y-108422000D01*
X141968391Y-108674403D01*
X141969545Y-108679210D01*
X141969546Y-108679216D01*
X141979991Y-108722722D01*
X142027495Y-108920591D01*
X142029388Y-108925162D01*
X142029389Y-108925164D01*
X142114279Y-109130106D01*
X142124384Y-109154502D01*
X142256672Y-109370376D01*
X142421102Y-109562898D01*
X142613624Y-109727328D01*
X142829498Y-109859616D01*
X142834068Y-109861509D01*
X142834072Y-109861511D01*
X143058836Y-109954611D01*
X143063409Y-109956505D01*
X143148032Y-109976821D01*
X143304784Y-110014454D01*
X143304790Y-110014455D01*
X143309597Y-110015609D01*
X143562000Y-110035474D01*
X143814403Y-110015609D01*
X143819210Y-110014455D01*
X143819216Y-110014454D01*
X143975968Y-109976821D01*
X144060591Y-109956505D01*
X144065164Y-109954611D01*
X144289928Y-109861511D01*
X144289932Y-109861509D01*
X144294502Y-109859616D01*
X144510275Y-109727390D01*
X149121440Y-109727390D01*
X149127167Y-109735040D01*
X149325506Y-109856583D01*
X149334300Y-109861064D01*
X149558991Y-109954134D01*
X149568376Y-109957183D01*
X149804863Y-110013959D01*
X149814610Y-110015502D01*
X150057070Y-110034584D01*
X150066930Y-110034584D01*
X150309390Y-110015502D01*
X150319137Y-110013959D01*
X150555624Y-109957183D01*
X150565009Y-109954134D01*
X150789700Y-109861064D01*
X150798494Y-109856583D01*
X150993167Y-109737287D01*
X151002627Y-109726830D01*
X150998844Y-109718054D01*
X150074812Y-108794022D01*
X150060868Y-108786408D01*
X150059035Y-108786539D01*
X150052420Y-108790790D01*
X149128200Y-109715010D01*
X149121440Y-109727390D01*
X144510275Y-109727390D01*
X144510376Y-109727328D01*
X144702898Y-109562898D01*
X144867328Y-109370376D01*
X144999616Y-109154502D01*
X145009722Y-109130106D01*
X145094611Y-108925164D01*
X145094612Y-108925162D01*
X145096505Y-108920591D01*
X145144009Y-108722722D01*
X145154454Y-108679216D01*
X145154455Y-108679210D01*
X145155609Y-108674403D01*
X145175086Y-108426930D01*
X148449416Y-108426930D01*
X148468498Y-108669390D01*
X148470041Y-108679137D01*
X148526817Y-108915624D01*
X148529866Y-108925009D01*
X148622936Y-109149700D01*
X148627417Y-109158494D01*
X148746713Y-109353167D01*
X148757170Y-109362627D01*
X148765946Y-109358844D01*
X149689978Y-108434812D01*
X149696356Y-108423132D01*
X150426408Y-108423132D01*
X150426539Y-108424965D01*
X150430790Y-108431580D01*
X151355010Y-109355800D01*
X151367390Y-109362560D01*
X151375040Y-109356833D01*
X151415144Y-109291390D01*
X153289440Y-109291390D01*
X153295167Y-109299040D01*
X153493506Y-109420583D01*
X153502300Y-109425064D01*
X153726991Y-109518134D01*
X153736376Y-109521183D01*
X153972863Y-109577959D01*
X153982610Y-109579502D01*
X154225070Y-109598584D01*
X154234930Y-109598584D01*
X154477390Y-109579502D01*
X154487137Y-109577959D01*
X154723624Y-109521183D01*
X154733009Y-109518134D01*
X154957700Y-109425064D01*
X154966494Y-109420583D01*
X155161167Y-109301287D01*
X155170627Y-109290830D01*
X155166844Y-109282054D01*
X154242812Y-108358022D01*
X154228868Y-108350408D01*
X154227035Y-108350539D01*
X154220420Y-108354790D01*
X153296200Y-109279010D01*
X153289440Y-109291390D01*
X151415144Y-109291390D01*
X151496583Y-109158494D01*
X151501064Y-109149700D01*
X151594134Y-108925009D01*
X151597183Y-108915624D01*
X151653959Y-108679137D01*
X151655502Y-108669390D01*
X151674584Y-108426930D01*
X151674584Y-108417070D01*
X151655502Y-108174610D01*
X151653959Y-108164863D01*
X151612201Y-107990930D01*
X152617416Y-107990930D01*
X152636498Y-108233390D01*
X152638041Y-108243137D01*
X152694817Y-108479624D01*
X152697866Y-108489009D01*
X152790936Y-108713700D01*
X152795417Y-108722494D01*
X152914713Y-108917167D01*
X152925170Y-108926627D01*
X152933946Y-108922844D01*
X153857978Y-107998812D01*
X153864356Y-107987132D01*
X154594408Y-107987132D01*
X154594539Y-107988965D01*
X154598790Y-107995580D01*
X155523010Y-108919800D01*
X155535390Y-108926560D01*
X155543040Y-108920833D01*
X155664583Y-108722494D01*
X155669064Y-108713700D01*
X155762134Y-108489009D01*
X155765183Y-108479624D01*
X155821959Y-108243137D01*
X155823502Y-108233390D01*
X155842584Y-107990930D01*
X155842584Y-107981070D01*
X155823502Y-107738610D01*
X155821959Y-107728863D01*
X155765183Y-107492376D01*
X155762134Y-107482991D01*
X155669064Y-107258300D01*
X155664583Y-107249506D01*
X155545287Y-107054833D01*
X155534830Y-107045373D01*
X155526054Y-107049156D01*
X154602022Y-107973188D01*
X154594408Y-107987132D01*
X153864356Y-107987132D01*
X153865592Y-107984868D01*
X153865461Y-107983035D01*
X153861210Y-107976420D01*
X152936990Y-107052200D01*
X152924610Y-107045440D01*
X152916960Y-107051167D01*
X152795417Y-107249506D01*
X152790936Y-107258300D01*
X152697866Y-107482991D01*
X152694817Y-107492376D01*
X152638041Y-107728863D01*
X152636498Y-107738610D01*
X152617416Y-107981070D01*
X152617416Y-107990930D01*
X151612201Y-107990930D01*
X151597183Y-107928376D01*
X151594134Y-107918991D01*
X151501064Y-107694300D01*
X151496583Y-107685506D01*
X151377287Y-107490833D01*
X151366830Y-107481373D01*
X151358054Y-107485156D01*
X150434022Y-108409188D01*
X150426408Y-108423132D01*
X149696356Y-108423132D01*
X149697592Y-108420868D01*
X149697461Y-108419035D01*
X149693210Y-108412420D01*
X148768990Y-107488200D01*
X148756610Y-107481440D01*
X148748960Y-107487167D01*
X148627417Y-107685506D01*
X148622936Y-107694300D01*
X148529866Y-107918991D01*
X148526817Y-107928376D01*
X148470041Y-108164863D01*
X148468498Y-108174610D01*
X148449416Y-108417070D01*
X148449416Y-108426930D01*
X145175086Y-108426930D01*
X145175474Y-108422000D01*
X145155609Y-108169597D01*
X145096505Y-107923409D01*
X145019926Y-107738531D01*
X145001511Y-107694072D01*
X145001509Y-107694068D01*
X144999616Y-107689498D01*
X144867328Y-107473624D01*
X144702898Y-107281102D01*
X144510959Y-107117170D01*
X149121373Y-107117170D01*
X149125156Y-107125946D01*
X150049188Y-108049978D01*
X150063132Y-108057592D01*
X150064965Y-108057461D01*
X150071580Y-108053210D01*
X150995800Y-107128990D01*
X151002560Y-107116610D01*
X150996833Y-107108960D01*
X150798494Y-106987417D01*
X150789700Y-106982936D01*
X150565009Y-106889866D01*
X150555624Y-106886817D01*
X150319137Y-106830041D01*
X150309390Y-106828498D01*
X150066930Y-106809416D01*
X150057070Y-106809416D01*
X149814610Y-106828498D01*
X149804863Y-106830041D01*
X149568376Y-106886817D01*
X149558991Y-106889866D01*
X149334300Y-106982936D01*
X149325506Y-106987417D01*
X149130833Y-107106713D01*
X149121373Y-107117170D01*
X144510959Y-107117170D01*
X144510376Y-107116672D01*
X144294502Y-106984384D01*
X144289932Y-106982491D01*
X144289928Y-106982489D01*
X144065164Y-106889389D01*
X144065162Y-106889388D01*
X144060591Y-106887495D01*
X143975968Y-106867179D01*
X143819216Y-106829546D01*
X143819210Y-106829545D01*
X143814403Y-106828391D01*
X143562000Y-106808526D01*
X143309597Y-106828391D01*
X143304790Y-106829545D01*
X143304784Y-106829546D01*
X143148032Y-106867179D01*
X143063409Y-106887495D01*
X143058838Y-106889388D01*
X143058836Y-106889389D01*
X142834072Y-106982489D01*
X142834068Y-106982491D01*
X142829498Y-106984384D01*
X142613624Y-107116672D01*
X142421102Y-107281102D01*
X142256672Y-107473624D01*
X142124384Y-107689498D01*
X142122491Y-107694068D01*
X142122489Y-107694072D01*
X142104074Y-107738531D01*
X142027495Y-107923409D01*
X141968391Y-108169597D01*
X141948526Y-108422000D01*
X141451532Y-108422000D01*
X141495609Y-108238403D01*
X141515474Y-107986000D01*
X141495609Y-107733597D01*
X141484064Y-107685506D01*
X141437660Y-107492221D01*
X141436505Y-107487409D01*
X141351050Y-107281102D01*
X141341511Y-107258072D01*
X141341509Y-107258068D01*
X141339616Y-107253498D01*
X141207328Y-107037624D01*
X141042898Y-106845102D01*
X140850959Y-106681170D01*
X153289373Y-106681170D01*
X153293156Y-106689946D01*
X154217188Y-107613978D01*
X154231132Y-107621592D01*
X154232965Y-107621461D01*
X154239580Y-107617210D01*
X155163800Y-106692990D01*
X155170560Y-106680610D01*
X155164833Y-106672960D01*
X154966494Y-106551417D01*
X154957700Y-106546936D01*
X154733009Y-106453866D01*
X154723624Y-106450817D01*
X154487137Y-106394041D01*
X154477390Y-106392498D01*
X154234930Y-106373416D01*
X154225070Y-106373416D01*
X153982610Y-106392498D01*
X153972863Y-106394041D01*
X153736376Y-106450817D01*
X153726991Y-106453866D01*
X153502300Y-106546936D01*
X153493506Y-106551417D01*
X153298833Y-106670713D01*
X153289373Y-106681170D01*
X140850959Y-106681170D01*
X140850376Y-106680672D01*
X140634502Y-106548384D01*
X140629932Y-106546491D01*
X140629928Y-106546489D01*
X140405164Y-106453389D01*
X140405162Y-106453388D01*
X140400591Y-106451495D01*
X140315968Y-106431179D01*
X140159216Y-106393546D01*
X140159210Y-106393545D01*
X140154403Y-106392391D01*
X139902000Y-106372526D01*
X139649597Y-106392391D01*
X139644790Y-106393545D01*
X139644784Y-106393546D01*
X139488032Y-106431179D01*
X139403409Y-106451495D01*
X139398838Y-106453388D01*
X139398836Y-106453389D01*
X139174072Y-106546489D01*
X139174068Y-106546491D01*
X139169498Y-106548384D01*
X138953624Y-106680672D01*
X138761102Y-106845102D01*
X138596672Y-107037624D01*
X138464384Y-107253498D01*
X138462491Y-107258068D01*
X138462489Y-107258072D01*
X138452950Y-107281102D01*
X138367495Y-107487409D01*
X138366340Y-107492221D01*
X138319937Y-107685506D01*
X138308391Y-107733597D01*
X138288526Y-107986000D01*
X135010500Y-107986000D01*
X135010500Y-106837866D01*
X135003745Y-106775684D01*
X134952615Y-106639295D01*
X134865261Y-106522739D01*
X134858081Y-106517358D01*
X134851731Y-106511008D01*
X134853785Y-106508954D01*
X134820089Y-106463885D01*
X134815067Y-106393066D01*
X134849076Y-106330828D01*
X146892247Y-94287657D01*
X146900537Y-94280113D01*
X146907018Y-94276000D01*
X146953659Y-94226332D01*
X146956413Y-94223491D01*
X146976134Y-94203770D01*
X146978612Y-94200575D01*
X146986318Y-94191553D01*
X147011158Y-94165101D01*
X147016586Y-94159321D01*
X147026346Y-94141568D01*
X147037199Y-94125045D01*
X147044753Y-94115306D01*
X147049613Y-94109041D01*
X147067176Y-94068457D01*
X147072383Y-94057827D01*
X147093695Y-94019060D01*
X147095666Y-94011383D01*
X147095668Y-94011378D01*
X147098732Y-93999442D01*
X147105138Y-93980730D01*
X147108972Y-93971872D01*
X147113181Y-93962145D01*
X147114421Y-93954317D01*
X147114423Y-93954310D01*
X147120099Y-93918476D01*
X147122505Y-93906856D01*
X147131528Y-93871711D01*
X147131528Y-93871710D01*
X147133500Y-93864030D01*
X147133500Y-93843776D01*
X147135051Y-93824065D01*
X147136980Y-93811886D01*
X147138220Y-93804057D01*
X147134059Y-93760038D01*
X147133500Y-93748181D01*
X147133500Y-91154791D01*
X147153502Y-91086670D01*
X147183935Y-91053965D01*
X147244435Y-91008623D01*
X147310942Y-90983775D01*
X147380324Y-90998828D01*
X147395565Y-91008623D01*
X147498295Y-91085615D01*
X147634684Y-91136745D01*
X147696866Y-91143500D01*
X148583134Y-91143500D01*
X148645316Y-91136745D01*
X148781705Y-91085615D01*
X148898261Y-90998261D01*
X148985615Y-90881705D01*
X149036745Y-90745316D01*
X149043500Y-90683134D01*
X149043500Y-90214594D01*
X149063502Y-90146473D01*
X149080405Y-90125499D01*
X149638152Y-89567752D01*
X149700464Y-89533726D01*
X149727247Y-89530847D01*
X156373496Y-89530847D01*
X156441617Y-89550849D01*
X156476709Y-89584576D01*
X156529720Y-89660283D01*
X156569523Y-89717128D01*
X156726719Y-89874324D01*
X156731227Y-89877481D01*
X156731230Y-89877483D01*
X156806995Y-89930534D01*
X156908823Y-90001835D01*
X156913805Y-90004158D01*
X156913810Y-90004161D01*
X157018873Y-90053152D01*
X157072158Y-90100069D01*
X157091619Y-90168346D01*
X157071077Y-90236306D01*
X157018873Y-90281542D01*
X156913811Y-90330533D01*
X156913806Y-90330536D01*
X156908824Y-90332859D01*
X156904317Y-90336015D01*
X156904315Y-90336016D01*
X156731230Y-90457211D01*
X156731227Y-90457213D01*
X156726719Y-90460370D01*
X156569523Y-90617566D01*
X156566366Y-90622074D01*
X156566364Y-90622077D01*
X156476709Y-90750118D01*
X156421252Y-90794446D01*
X156373496Y-90803847D01*
X154005420Y-90803847D01*
X153994237Y-90803320D01*
X153986744Y-90801645D01*
X153978818Y-90801894D01*
X153978817Y-90801894D01*
X153918654Y-90803785D01*
X153914696Y-90803847D01*
X153886797Y-90803847D01*
X153882807Y-90804351D01*
X153870973Y-90805283D01*
X153826764Y-90806673D01*
X153819150Y-90808885D01*
X153819145Y-90808886D01*
X153807312Y-90812324D01*
X153787949Y-90816335D01*
X153767856Y-90818873D01*
X153760489Y-90821790D01*
X153760484Y-90821791D01*
X153726745Y-90835149D01*
X153715518Y-90838993D01*
X153673060Y-90851329D01*
X153666234Y-90855366D01*
X153655625Y-90861640D01*
X153637877Y-90870335D01*
X153619036Y-90877795D01*
X153612620Y-90882457D01*
X153612619Y-90882457D01*
X153583266Y-90903783D01*
X153573346Y-90910299D01*
X153542118Y-90928767D01*
X153542115Y-90928769D01*
X153535291Y-90932805D01*
X153520970Y-90947126D01*
X153505937Y-90959966D01*
X153489546Y-90971875D01*
X153465327Y-91001151D01*
X153461355Y-91005952D01*
X153453365Y-91014731D01*
X143169747Y-101298348D01*
X143161461Y-101305888D01*
X143154982Y-101310000D01*
X143149557Y-101315777D01*
X143108357Y-101359651D01*
X143105602Y-101362493D01*
X143085865Y-101382230D01*
X143083385Y-101385427D01*
X143075682Y-101394447D01*
X143045414Y-101426679D01*
X143041595Y-101433625D01*
X143041593Y-101433628D01*
X143035652Y-101444434D01*
X143024801Y-101460953D01*
X143012386Y-101476959D01*
X143009241Y-101484228D01*
X143009238Y-101484232D01*
X142994826Y-101517537D01*
X142989609Y-101528187D01*
X142968305Y-101566940D01*
X142966334Y-101574615D01*
X142966334Y-101574616D01*
X142963267Y-101586562D01*
X142956863Y-101605266D01*
X142948819Y-101623855D01*
X142947580Y-101631678D01*
X142947577Y-101631688D01*
X142941901Y-101667524D01*
X142939495Y-101679144D01*
X142928500Y-101721970D01*
X142928500Y-101742224D01*
X142926949Y-101761934D01*
X142923780Y-101781943D01*
X142924526Y-101789835D01*
X142927941Y-101825961D01*
X142928500Y-101837819D01*
X142928500Y-102187500D01*
X142908498Y-102255621D01*
X142854842Y-102302114D01*
X142802500Y-102313500D01*
X142413866Y-102313500D01*
X142351684Y-102320255D01*
X142215295Y-102371385D01*
X142098739Y-102458739D01*
X142011385Y-102575295D01*
X141960255Y-102711684D01*
X141953500Y-102773866D01*
X141953500Y-105070134D01*
X141960255Y-105132316D01*
X142011385Y-105268705D01*
X142098739Y-105385261D01*
X142215295Y-105472615D01*
X142351684Y-105523745D01*
X142413866Y-105530500D01*
X144710134Y-105530500D01*
X144772316Y-105523745D01*
X144908705Y-105472615D01*
X145025261Y-105385261D01*
X145112615Y-105268705D01*
X145163745Y-105132316D01*
X145170500Y-105070134D01*
X145170500Y-103922000D01*
X148448526Y-103922000D01*
X148468391Y-104174403D01*
X148527495Y-104420591D01*
X148624384Y-104654502D01*
X148756672Y-104870376D01*
X148921102Y-105062898D01*
X149113624Y-105227328D01*
X149329498Y-105359616D01*
X149334068Y-105361509D01*
X149334072Y-105361511D01*
X149404401Y-105390642D01*
X149563409Y-105456505D01*
X149630513Y-105472615D01*
X149804784Y-105514454D01*
X149804790Y-105514455D01*
X149809597Y-105515609D01*
X150062000Y-105535474D01*
X150314403Y-105515609D01*
X150319210Y-105514455D01*
X150319216Y-105514454D01*
X150493487Y-105472615D01*
X150560591Y-105456505D01*
X150719599Y-105390642D01*
X150789928Y-105361511D01*
X150789932Y-105361509D01*
X150794502Y-105359616D01*
X151010376Y-105227328D01*
X151202898Y-105062898D01*
X151367328Y-104870376D01*
X151499616Y-104654502D01*
X151596505Y-104420591D01*
X151655609Y-104174403D01*
X151675474Y-103922000D01*
X151655609Y-103669597D01*
X151596505Y-103423409D01*
X151499616Y-103189498D01*
X151367328Y-102973624D01*
X151202898Y-102781102D01*
X151010376Y-102616672D01*
X150794502Y-102484384D01*
X150789932Y-102482491D01*
X150789928Y-102482489D01*
X150565164Y-102389389D01*
X150565162Y-102389388D01*
X150560591Y-102387495D01*
X150475968Y-102367179D01*
X150319216Y-102329546D01*
X150319210Y-102329545D01*
X150314403Y-102328391D01*
X150062000Y-102308526D01*
X149809597Y-102328391D01*
X149804790Y-102329545D01*
X149804784Y-102329546D01*
X149648032Y-102367179D01*
X149563409Y-102387495D01*
X149558838Y-102389388D01*
X149558836Y-102389389D01*
X149334072Y-102482489D01*
X149334068Y-102482491D01*
X149329498Y-102484384D01*
X149113624Y-102616672D01*
X148921102Y-102781102D01*
X148756672Y-102973624D01*
X148624384Y-103189498D01*
X148527495Y-103423409D01*
X148468391Y-103669597D01*
X148448526Y-103922000D01*
X145170500Y-103922000D01*
X145170500Y-102773866D01*
X145163745Y-102711684D01*
X145112615Y-102575295D01*
X145025261Y-102458739D01*
X144908705Y-102371385D01*
X144772316Y-102320255D01*
X144710134Y-102313500D01*
X144321500Y-102313500D01*
X144253379Y-102293498D01*
X144206886Y-102239842D01*
X144195500Y-102187500D01*
X144195500Y-102116594D01*
X144215502Y-102048473D01*
X144232405Y-102027499D01*
X149742558Y-96517347D01*
X156271147Y-96517347D01*
X156290522Y-96738810D01*
X156348060Y-96953543D01*
X156350382Y-96958524D01*
X156350383Y-96958525D01*
X156439686Y-97150036D01*
X156439689Y-97150041D01*
X156442012Y-97155023D01*
X156569523Y-97337128D01*
X156726719Y-97494324D01*
X156731227Y-97497481D01*
X156731230Y-97497483D01*
X156806995Y-97550534D01*
X156908823Y-97621835D01*
X156913805Y-97624158D01*
X156913810Y-97624161D01*
X157105322Y-97713464D01*
X157110304Y-97715787D01*
X157115612Y-97717209D01*
X157115614Y-97717210D01*
X157181449Y-97734850D01*
X157325037Y-97773325D01*
X157546500Y-97792700D01*
X157767963Y-97773325D01*
X157784142Y-97768990D01*
X157807016Y-97762861D01*
X157877993Y-97764551D01*
X157928722Y-97795473D01*
X161484595Y-101351346D01*
X161518621Y-101413658D01*
X161521500Y-101440441D01*
X161521500Y-106384249D01*
X161501498Y-106452370D01*
X161447842Y-106498863D01*
X161377568Y-106508967D01*
X161347282Y-106500658D01*
X161233164Y-106453389D01*
X161233162Y-106453388D01*
X161228591Y-106451495D01*
X161143968Y-106431179D01*
X160987216Y-106393546D01*
X160987210Y-106393545D01*
X160982403Y-106392391D01*
X160730000Y-106372526D01*
X160477597Y-106392391D01*
X160472790Y-106393545D01*
X160472784Y-106393546D01*
X160316032Y-106431179D01*
X160231409Y-106451495D01*
X160226838Y-106453388D01*
X160226836Y-106453389D01*
X160002072Y-106546489D01*
X160002068Y-106546491D01*
X159997498Y-106548384D01*
X159781624Y-106680672D01*
X159589102Y-106845102D01*
X159424672Y-107037624D01*
X159292384Y-107253498D01*
X159290491Y-107258068D01*
X159290489Y-107258072D01*
X159280950Y-107281102D01*
X159195495Y-107487409D01*
X159194340Y-107492221D01*
X159147937Y-107685506D01*
X159136391Y-107733597D01*
X159116526Y-107986000D01*
X159136391Y-108238403D01*
X159195495Y-108484591D01*
X159197388Y-108489162D01*
X159197389Y-108489164D01*
X159276079Y-108679137D01*
X159292384Y-108718502D01*
X159424672Y-108934376D01*
X159589102Y-109126898D01*
X159781624Y-109291328D01*
X159997498Y-109423616D01*
X160002068Y-109425509D01*
X160002072Y-109425511D01*
X160226836Y-109518611D01*
X160231409Y-109520505D01*
X160298513Y-109536615D01*
X160472784Y-109578454D01*
X160472790Y-109578455D01*
X160477597Y-109579609D01*
X160730000Y-109599474D01*
X160982403Y-109579609D01*
X160987210Y-109578455D01*
X160987216Y-109578454D01*
X161161487Y-109536615D01*
X161228591Y-109520505D01*
X161233164Y-109518611D01*
X161347282Y-109471342D01*
X161417872Y-109463753D01*
X161481359Y-109495533D01*
X161517586Y-109556591D01*
X161521500Y-109587751D01*
X161521500Y-110746405D01*
X161501498Y-110814526D01*
X161484595Y-110835500D01*
X161479500Y-110840595D01*
X161417188Y-110874621D01*
X161390405Y-110877500D01*
X159581866Y-110877500D01*
X159519684Y-110884255D01*
X159383295Y-110935385D01*
X159266739Y-111022739D01*
X159179385Y-111139295D01*
X159128255Y-111275684D01*
X159121500Y-111337866D01*
X159121500Y-113634134D01*
X159128255Y-113696316D01*
X159179385Y-113832705D01*
X159266739Y-113949261D01*
X159383295Y-114036615D01*
X159519684Y-114087745D01*
X159581866Y-114094500D01*
X161878134Y-114094500D01*
X161940316Y-114087745D01*
X162076705Y-114036615D01*
X162193261Y-113949261D01*
X162280615Y-113832705D01*
X162331745Y-113696316D01*
X162338500Y-113634134D01*
X162338500Y-111825594D01*
X162358502Y-111757473D01*
X162375405Y-111736499D01*
X162547247Y-111564657D01*
X162555537Y-111557113D01*
X162562018Y-111553000D01*
X162608659Y-111503332D01*
X162611413Y-111500491D01*
X162631134Y-111480770D01*
X162633612Y-111477575D01*
X162641318Y-111468553D01*
X162666158Y-111442101D01*
X162671586Y-111436321D01*
X162681346Y-111418568D01*
X162692199Y-111402045D01*
X162699753Y-111392306D01*
X162704613Y-111386041D01*
X162722176Y-111345457D01*
X162727383Y-111334827D01*
X162748695Y-111296060D01*
X162750666Y-111288383D01*
X162750668Y-111288378D01*
X162753732Y-111276442D01*
X162760138Y-111257730D01*
X162765033Y-111246419D01*
X162768181Y-111239145D01*
X162769421Y-111231317D01*
X162769423Y-111231310D01*
X162775099Y-111195476D01*
X162777505Y-111183856D01*
X162786528Y-111148711D01*
X162786528Y-111148710D01*
X162788500Y-111141030D01*
X162788500Y-111120776D01*
X162790051Y-111101065D01*
X162791980Y-111088886D01*
X162793220Y-111081057D01*
X162789059Y-111037038D01*
X162788500Y-111025181D01*
X162788500Y-101204614D01*
X162789027Y-101193431D01*
X162790702Y-101185938D01*
X162788562Y-101117861D01*
X162788500Y-101113902D01*
X162788500Y-101085991D01*
X162787995Y-101081991D01*
X162787062Y-101070148D01*
X162785922Y-101033876D01*
X162785673Y-101025957D01*
X162780022Y-101006505D01*
X162776014Y-100987153D01*
X162774467Y-100974910D01*
X162773474Y-100967050D01*
X162770556Y-100959679D01*
X162757200Y-100925944D01*
X162753355Y-100914717D01*
X162752721Y-100912534D01*
X162741018Y-100872254D01*
X162736984Y-100865432D01*
X162736981Y-100865426D01*
X162730706Y-100854815D01*
X162722010Y-100837065D01*
X162717472Y-100825603D01*
X162717469Y-100825598D01*
X162714552Y-100818230D01*
X162688573Y-100782472D01*
X162682057Y-100772554D01*
X162663575Y-100741304D01*
X162659542Y-100734484D01*
X162645218Y-100720160D01*
X162632376Y-100705125D01*
X162620472Y-100688740D01*
X162586406Y-100660558D01*
X162577627Y-100652569D01*
X158824626Y-96899568D01*
X158790600Y-96837256D01*
X158792015Y-96777861D01*
X158801053Y-96744130D01*
X158801054Y-96744123D01*
X158802478Y-96738810D01*
X158821853Y-96517347D01*
X158802478Y-96295884D01*
X158744940Y-96081151D01*
X158742617Y-96076169D01*
X158653314Y-95884658D01*
X158653311Y-95884653D01*
X158650988Y-95879671D01*
X158523477Y-95697566D01*
X158366281Y-95540370D01*
X158361773Y-95537213D01*
X158361770Y-95537211D01*
X158286005Y-95484160D01*
X158184177Y-95412859D01*
X158179195Y-95410536D01*
X158179190Y-95410533D01*
X158073535Y-95361266D01*
X158020250Y-95314349D01*
X158000789Y-95246072D01*
X158021331Y-95178112D01*
X158073535Y-95132876D01*
X158178945Y-95083723D01*
X158188431Y-95078245D01*
X158232264Y-95047554D01*
X158240639Y-95037076D01*
X158233571Y-95023628D01*
X157559312Y-94349369D01*
X157545368Y-94341755D01*
X157543535Y-94341886D01*
X157536920Y-94346137D01*
X156858707Y-95024350D01*
X156852277Y-95036124D01*
X156861574Y-95048140D01*
X156904569Y-95078245D01*
X156914055Y-95083723D01*
X157019465Y-95132876D01*
X157072750Y-95179793D01*
X157092211Y-95248070D01*
X157071669Y-95316030D01*
X157019465Y-95361266D01*
X156913811Y-95410533D01*
X156913806Y-95410536D01*
X156908824Y-95412859D01*
X156904317Y-95416015D01*
X156904315Y-95416016D01*
X156731230Y-95537211D01*
X156731227Y-95537213D01*
X156726719Y-95540370D01*
X156569523Y-95697566D01*
X156442012Y-95879671D01*
X156439689Y-95884653D01*
X156439686Y-95884658D01*
X156350383Y-96076169D01*
X156348060Y-96081151D01*
X156290522Y-96295884D01*
X156271147Y-96517347D01*
X149742558Y-96517347D01*
X152277083Y-93982822D01*
X156272128Y-93982822D01*
X156290538Y-94193243D01*
X156292441Y-94204038D01*
X156347109Y-94408062D01*
X156350855Y-94418354D01*
X156440123Y-94609788D01*
X156445603Y-94619279D01*
X156476294Y-94663112D01*
X156486771Y-94671487D01*
X156500218Y-94664419D01*
X157174478Y-93990159D01*
X157180856Y-93978479D01*
X157910908Y-93978479D01*
X157911039Y-93980312D01*
X157915290Y-93986927D01*
X158593503Y-94665140D01*
X158605277Y-94671570D01*
X158617293Y-94662273D01*
X158647397Y-94619279D01*
X158652877Y-94609788D01*
X158742145Y-94418354D01*
X158745891Y-94408062D01*
X158800559Y-94204038D01*
X158802462Y-94193243D01*
X158820872Y-93982822D01*
X158820872Y-93971872D01*
X158802462Y-93761451D01*
X158800559Y-93750656D01*
X158745891Y-93546632D01*
X158742145Y-93536340D01*
X158652877Y-93344906D01*
X158647397Y-93335415D01*
X158616706Y-93291582D01*
X158606229Y-93283207D01*
X158592782Y-93290275D01*
X157918522Y-93964535D01*
X157910908Y-93978479D01*
X157180856Y-93978479D01*
X157182092Y-93976215D01*
X157181961Y-93974382D01*
X157177710Y-93967767D01*
X156499497Y-93289554D01*
X156487723Y-93283124D01*
X156475707Y-93292421D01*
X156445603Y-93335415D01*
X156440123Y-93344906D01*
X156350855Y-93536340D01*
X156347109Y-93546632D01*
X156292441Y-93750656D01*
X156290538Y-93761451D01*
X156272128Y-93971872D01*
X156272128Y-93982822D01*
X152277083Y-93982822D01*
X154152153Y-92107752D01*
X154214465Y-92073726D01*
X154241248Y-92070847D01*
X156373496Y-92070847D01*
X156441617Y-92090849D01*
X156476709Y-92124576D01*
X156569523Y-92257128D01*
X156726719Y-92414324D01*
X156731227Y-92417481D01*
X156731230Y-92417483D01*
X156806995Y-92470534D01*
X156908823Y-92541835D01*
X156913805Y-92544158D01*
X156913810Y-92544161D01*
X157019465Y-92593428D01*
X157072750Y-92640345D01*
X157092211Y-92708622D01*
X157071669Y-92776582D01*
X157019465Y-92821818D01*
X156914059Y-92870970D01*
X156904568Y-92876450D01*
X156860735Y-92907141D01*
X156852360Y-92917618D01*
X156859428Y-92931065D01*
X157533688Y-93605325D01*
X157547632Y-93612939D01*
X157549465Y-93612808D01*
X157556080Y-93608557D01*
X158234293Y-92930344D01*
X158240723Y-92918570D01*
X158231426Y-92906554D01*
X158188431Y-92876449D01*
X158178945Y-92870971D01*
X158073535Y-92821818D01*
X158020250Y-92774901D01*
X158000789Y-92706624D01*
X158021331Y-92638664D01*
X158073535Y-92593428D01*
X158179190Y-92544161D01*
X158179195Y-92544158D01*
X158184177Y-92541835D01*
X158286005Y-92470534D01*
X158361770Y-92417483D01*
X158361773Y-92417481D01*
X158366281Y-92414324D01*
X158523477Y-92257128D01*
X158650988Y-92075023D01*
X158653311Y-92070041D01*
X158653314Y-92070036D01*
X158742617Y-91878525D01*
X158742618Y-91878524D01*
X158744940Y-91873543D01*
X158802478Y-91658810D01*
X158821853Y-91437347D01*
X158802478Y-91215884D01*
X158748579Y-91014731D01*
X158746363Y-91006461D01*
X158746362Y-91006459D01*
X158744940Y-91001151D01*
X158740244Y-90991081D01*
X158653314Y-90804658D01*
X158653311Y-90804653D01*
X158650988Y-90799671D01*
X158647831Y-90795162D01*
X158526636Y-90622077D01*
X158526634Y-90622074D01*
X158523477Y-90617566D01*
X158366281Y-90460370D01*
X158361773Y-90457213D01*
X158361770Y-90457211D01*
X158286005Y-90404160D01*
X158184177Y-90332859D01*
X158179195Y-90330536D01*
X158179190Y-90330533D01*
X158074127Y-90281542D01*
X158020842Y-90234625D01*
X158001381Y-90166348D01*
X158021923Y-90098388D01*
X158074127Y-90053152D01*
X158179190Y-90004161D01*
X158179195Y-90004158D01*
X158184177Y-90001835D01*
X158286005Y-89930534D01*
X158361770Y-89877483D01*
X158361773Y-89877481D01*
X158366281Y-89874324D01*
X158523477Y-89717128D01*
X158563281Y-89660283D01*
X158647831Y-89539532D01*
X158647832Y-89539530D01*
X158650988Y-89535023D01*
X158653311Y-89530041D01*
X158653314Y-89530036D01*
X158742617Y-89338525D01*
X158742618Y-89338524D01*
X158744940Y-89333543D01*
X158802478Y-89118810D01*
X158821853Y-88897347D01*
X158802478Y-88675884D01*
X158764003Y-88532296D01*
X158746363Y-88466461D01*
X158746362Y-88466459D01*
X158744940Y-88461151D01*
X158734137Y-88437984D01*
X158653314Y-88264658D01*
X158653311Y-88264653D01*
X158650988Y-88259671D01*
X158647831Y-88255162D01*
X158526636Y-88082077D01*
X158526634Y-88082074D01*
X158523477Y-88077566D01*
X158366281Y-87920370D01*
X158361773Y-87917213D01*
X158361770Y-87917211D01*
X158286005Y-87864160D01*
X158184177Y-87792859D01*
X158179195Y-87790536D01*
X158179190Y-87790533D01*
X158074127Y-87741542D01*
X158020842Y-87694625D01*
X158001381Y-87626348D01*
X158021923Y-87558388D01*
X158074127Y-87513152D01*
X158179190Y-87464161D01*
X158179195Y-87464158D01*
X158184177Y-87461835D01*
X158286005Y-87390534D01*
X158361770Y-87337483D01*
X158361773Y-87337481D01*
X158366281Y-87334324D01*
X158523477Y-87177128D01*
X158538654Y-87155454D01*
X158647831Y-86999532D01*
X158647832Y-86999530D01*
X158650988Y-86995023D01*
X158653311Y-86990041D01*
X158653314Y-86990036D01*
X158742617Y-86798525D01*
X158742618Y-86798524D01*
X158744940Y-86793543D01*
X158802478Y-86578810D01*
X158821853Y-86357347D01*
X158802478Y-86135884D01*
X158744940Y-85921151D01*
X158733561Y-85896749D01*
X158653314Y-85724658D01*
X158653311Y-85724653D01*
X158650988Y-85719671D01*
X158600584Y-85647686D01*
X158526636Y-85542077D01*
X158526634Y-85542074D01*
X158523477Y-85537566D01*
X158366281Y-85380370D01*
X158361773Y-85377213D01*
X158361770Y-85377211D01*
X158217551Y-85276228D01*
X158184177Y-85252859D01*
X158179195Y-85250536D01*
X158179190Y-85250533D01*
X158074127Y-85201542D01*
X158020842Y-85154625D01*
X158001381Y-85086348D01*
X158021923Y-85018388D01*
X158074127Y-84973152D01*
X158179190Y-84924161D01*
X158179195Y-84924158D01*
X158184177Y-84921835D01*
X158286005Y-84850534D01*
X158361770Y-84797483D01*
X158361773Y-84797481D01*
X158366281Y-84794324D01*
X158523477Y-84637128D01*
X158594697Y-84535416D01*
X158647831Y-84459532D01*
X158647832Y-84459530D01*
X158650988Y-84455023D01*
X158653311Y-84450041D01*
X158653314Y-84450036D01*
X158742617Y-84258525D01*
X158742618Y-84258524D01*
X158744940Y-84253543D01*
X158752078Y-84226906D01*
X158766907Y-84171560D01*
X158802478Y-84038810D01*
X158821853Y-83817347D01*
X158802478Y-83595884D01*
X158744940Y-83381151D01*
X158742617Y-83376169D01*
X158653314Y-83184658D01*
X158653311Y-83184653D01*
X158650988Y-83179671D01*
X158523477Y-82997566D01*
X158366281Y-82840370D01*
X158361773Y-82837213D01*
X158361770Y-82837211D01*
X158286005Y-82784160D01*
X158184177Y-82712859D01*
X158179195Y-82710536D01*
X158179190Y-82710533D01*
X158074127Y-82661542D01*
X158020842Y-82614625D01*
X158001381Y-82546348D01*
X158021923Y-82478388D01*
X158074127Y-82433152D01*
X158179190Y-82384161D01*
X158179195Y-82384158D01*
X158184177Y-82381835D01*
X158356691Y-82261039D01*
X158361770Y-82257483D01*
X158361773Y-82257481D01*
X158366281Y-82254324D01*
X158523477Y-82097128D01*
X158590301Y-82001694D01*
X158647831Y-81919532D01*
X158647832Y-81919530D01*
X158650988Y-81915023D01*
X158653311Y-81910041D01*
X158653314Y-81910036D01*
X158742617Y-81718525D01*
X158742618Y-81718524D01*
X158744940Y-81713543D01*
X158802478Y-81498810D01*
X158821853Y-81277347D01*
X158802478Y-81055884D01*
X158751626Y-80866102D01*
X158746363Y-80846461D01*
X158746362Y-80846459D01*
X158744940Y-80841151D01*
X158699259Y-80743188D01*
X158653314Y-80644658D01*
X158653311Y-80644653D01*
X158650988Y-80639671D01*
X158636823Y-80619441D01*
X158526636Y-80462077D01*
X158526634Y-80462074D01*
X158523477Y-80457566D01*
X158366281Y-80300370D01*
X158361773Y-80297213D01*
X158361770Y-80297211D01*
X158217317Y-80196064D01*
X158184177Y-80172859D01*
X158179195Y-80170536D01*
X158179190Y-80170533D01*
X158074127Y-80121542D01*
X158020842Y-80074625D01*
X158001381Y-80006348D01*
X158021923Y-79938388D01*
X158074127Y-79893152D01*
X158179190Y-79844161D01*
X158179195Y-79844158D01*
X158184177Y-79841835D01*
X158332977Y-79737644D01*
X158361770Y-79717483D01*
X158361773Y-79717481D01*
X158366281Y-79714324D01*
X158523477Y-79557128D01*
X158527854Y-79550878D01*
X158647831Y-79379532D01*
X158647832Y-79379530D01*
X158650988Y-79375023D01*
X158653311Y-79370041D01*
X158653314Y-79370036D01*
X158742617Y-79178525D01*
X158742618Y-79178524D01*
X158744940Y-79173543D01*
X158802478Y-78958810D01*
X158821853Y-78737347D01*
X158802478Y-78515884D01*
X158750016Y-78320096D01*
X158746363Y-78306461D01*
X158746362Y-78306459D01*
X158744940Y-78301151D01*
X158709984Y-78226188D01*
X158653314Y-78104658D01*
X158653311Y-78104653D01*
X158650988Y-78099671D01*
X158624941Y-78062472D01*
X158526636Y-77922077D01*
X158526634Y-77922074D01*
X158523477Y-77917566D01*
X158366281Y-77760370D01*
X158361773Y-77757213D01*
X158361770Y-77757211D01*
X158286005Y-77704160D01*
X158184177Y-77632859D01*
X158179195Y-77630536D01*
X158179190Y-77630533D01*
X157987678Y-77541230D01*
X157987677Y-77541229D01*
X157982696Y-77538907D01*
X157977388Y-77537485D01*
X157977386Y-77537484D01*
X157911551Y-77519844D01*
X157767963Y-77481369D01*
X157546500Y-77461994D01*
X157325037Y-77481369D01*
X157181449Y-77519844D01*
X157115614Y-77537484D01*
X157115612Y-77537485D01*
X157110304Y-77538907D01*
X157105323Y-77541229D01*
X157105322Y-77541230D01*
X156913811Y-77630533D01*
X156913806Y-77630536D01*
X156908824Y-77632859D01*
X156904317Y-77636015D01*
X156904315Y-77636016D01*
X156731230Y-77757211D01*
X156731227Y-77757213D01*
X156726719Y-77760370D01*
X156569523Y-77917566D01*
X156566366Y-77922074D01*
X156566364Y-77922077D01*
X156468059Y-78062472D01*
X156442012Y-78099671D01*
X156439689Y-78104653D01*
X156439686Y-78104658D01*
X156383016Y-78226188D01*
X156348060Y-78301151D01*
X156346638Y-78306459D01*
X156346637Y-78306461D01*
X156342984Y-78320096D01*
X156290522Y-78515884D01*
X156271147Y-78737347D01*
X156290522Y-78958810D01*
X156348060Y-79173543D01*
X156350382Y-79178524D01*
X156350383Y-79178525D01*
X156439686Y-79370036D01*
X156439689Y-79370041D01*
X156442012Y-79375023D01*
X156445168Y-79379530D01*
X156445169Y-79379532D01*
X156565147Y-79550878D01*
X156569523Y-79557128D01*
X156726719Y-79714324D01*
X156731227Y-79717481D01*
X156731230Y-79717483D01*
X156760023Y-79737644D01*
X156908823Y-79841835D01*
X156913805Y-79844158D01*
X156913810Y-79844161D01*
X157018873Y-79893152D01*
X157072158Y-79940069D01*
X157091619Y-80008346D01*
X157071077Y-80076306D01*
X157018873Y-80121542D01*
X156913811Y-80170533D01*
X156913806Y-80170536D01*
X156908824Y-80172859D01*
X156904317Y-80176015D01*
X156904315Y-80176016D01*
X156731230Y-80297211D01*
X156731227Y-80297213D01*
X156726719Y-80300370D01*
X156569523Y-80457566D01*
X156566366Y-80462074D01*
X156566364Y-80462077D01*
X156456177Y-80619441D01*
X156442012Y-80639671D01*
X156439689Y-80644653D01*
X156439686Y-80644658D01*
X156393741Y-80743188D01*
X156348060Y-80841151D01*
X156346638Y-80846459D01*
X156346637Y-80846461D01*
X156341374Y-80866102D01*
X156290522Y-81055884D01*
X156271147Y-81277347D01*
X156290522Y-81498810D01*
X156348060Y-81713543D01*
X156350382Y-81718524D01*
X156350383Y-81718525D01*
X156439686Y-81910036D01*
X156439689Y-81910041D01*
X156442012Y-81915023D01*
X156445168Y-81919530D01*
X156445169Y-81919532D01*
X156502700Y-82001694D01*
X156569523Y-82097128D01*
X156726719Y-82254324D01*
X156731227Y-82257481D01*
X156731230Y-82257483D01*
X156736309Y-82261039D01*
X156908823Y-82381835D01*
X156913805Y-82384158D01*
X156913810Y-82384161D01*
X157018873Y-82433152D01*
X157072158Y-82480069D01*
X157091619Y-82548346D01*
X157071077Y-82616306D01*
X157018873Y-82661542D01*
X156913811Y-82710533D01*
X156913806Y-82710536D01*
X156908824Y-82712859D01*
X156904317Y-82716015D01*
X156904315Y-82716016D01*
X156731230Y-82837211D01*
X156731227Y-82837213D01*
X156726719Y-82840370D01*
X156569523Y-82997566D01*
X156442012Y-83179671D01*
X156439689Y-83184653D01*
X156439686Y-83184658D01*
X156350383Y-83376169D01*
X156348060Y-83381151D01*
X156290522Y-83595884D01*
X156271147Y-83817347D01*
X156290522Y-84038810D01*
X156326093Y-84171560D01*
X156340923Y-84226906D01*
X156348060Y-84253543D01*
X156350382Y-84258524D01*
X156350383Y-84258525D01*
X156439686Y-84450036D01*
X156439689Y-84450041D01*
X156442012Y-84455023D01*
X156445168Y-84459530D01*
X156445169Y-84459532D01*
X156498304Y-84535416D01*
X156569523Y-84637128D01*
X156726719Y-84794324D01*
X156731227Y-84797481D01*
X156731230Y-84797483D01*
X156806995Y-84850534D01*
X156908823Y-84921835D01*
X156913805Y-84924158D01*
X156913810Y-84924161D01*
X157018873Y-84973152D01*
X157072158Y-85020069D01*
X157091619Y-85088346D01*
X157071077Y-85156306D01*
X157018873Y-85201542D01*
X156913811Y-85250533D01*
X156913806Y-85250536D01*
X156908824Y-85252859D01*
X156904317Y-85256015D01*
X156904315Y-85256016D01*
X156731230Y-85377211D01*
X156731227Y-85377213D01*
X156726719Y-85380370D01*
X156569523Y-85537566D01*
X156566366Y-85542074D01*
X156566364Y-85542077D01*
X156492416Y-85647686D01*
X156442012Y-85719671D01*
X156439689Y-85724653D01*
X156439686Y-85724658D01*
X156359439Y-85896749D01*
X156348060Y-85921151D01*
X156290522Y-86135884D01*
X156271147Y-86357347D01*
X156290522Y-86578810D01*
X156348060Y-86793543D01*
X156350382Y-86798524D01*
X156350383Y-86798525D01*
X156439686Y-86990036D01*
X156439689Y-86990041D01*
X156442012Y-86995023D01*
X156445168Y-86999530D01*
X156445169Y-86999532D01*
X156554347Y-87155454D01*
X156569523Y-87177128D01*
X156726719Y-87334324D01*
X156731227Y-87337481D01*
X156731230Y-87337483D01*
X156806995Y-87390534D01*
X156908823Y-87461835D01*
X156913805Y-87464158D01*
X156913810Y-87464161D01*
X157018873Y-87513152D01*
X157072158Y-87560069D01*
X157091619Y-87628346D01*
X157071077Y-87696306D01*
X157018873Y-87741542D01*
X156913811Y-87790533D01*
X156913806Y-87790536D01*
X156908824Y-87792859D01*
X156904317Y-87796015D01*
X156904315Y-87796016D01*
X156731230Y-87917211D01*
X156731227Y-87917213D01*
X156726719Y-87920370D01*
X156569523Y-88077566D01*
X156566366Y-88082074D01*
X156566364Y-88082077D01*
X156476709Y-88210118D01*
X156421252Y-88254446D01*
X156373496Y-88263847D01*
X149491420Y-88263847D01*
X149480237Y-88263320D01*
X149472744Y-88261645D01*
X149464818Y-88261894D01*
X149464817Y-88261894D01*
X149404667Y-88263785D01*
X149400708Y-88263847D01*
X149372797Y-88263847D01*
X149368863Y-88264344D01*
X149368862Y-88264344D01*
X149368797Y-88264352D01*
X149356960Y-88265285D01*
X149325143Y-88266285D01*
X149320682Y-88266425D01*
X149312763Y-88266674D01*
X149295107Y-88271803D01*
X149293311Y-88272325D01*
X149273959Y-88276333D01*
X149266888Y-88277227D01*
X149253856Y-88278873D01*
X149246487Y-88281790D01*
X149246485Y-88281791D01*
X149212750Y-88295147D01*
X149201522Y-88298992D01*
X149159060Y-88311329D01*
X149152237Y-88315364D01*
X149152235Y-88315365D01*
X149141625Y-88321640D01*
X149123877Y-88330335D01*
X149105036Y-88337795D01*
X149098620Y-88342457D01*
X149098619Y-88342457D01*
X149069266Y-88363783D01*
X149059346Y-88370299D01*
X149028118Y-88388767D01*
X149028115Y-88388769D01*
X149021291Y-88392805D01*
X149006970Y-88407126D01*
X148991937Y-88419966D01*
X148975546Y-88431875D01*
X148970496Y-88437979D01*
X148970491Y-88437984D01*
X148947360Y-88465945D01*
X148939370Y-88474726D01*
X148254499Y-89159596D01*
X148192187Y-89193621D01*
X148165404Y-89196500D01*
X147696866Y-89196500D01*
X147634684Y-89203255D01*
X147498295Y-89254385D01*
X147399760Y-89328233D01*
X147395565Y-89331377D01*
X147329059Y-89356225D01*
X147259676Y-89341172D01*
X147244435Y-89331377D01*
X147240240Y-89328233D01*
X147141705Y-89254385D01*
X147005316Y-89203255D01*
X146943134Y-89196500D01*
X146056866Y-89196500D01*
X145994684Y-89203255D01*
X145858295Y-89254385D01*
X145741739Y-89341739D01*
X145654385Y-89458295D01*
X145603255Y-89594684D01*
X145596500Y-89656866D01*
X145596500Y-90683134D01*
X145603255Y-90745316D01*
X145654385Y-90881705D01*
X145741739Y-90998261D01*
X145748919Y-91003642D01*
X145816065Y-91053965D01*
X145858580Y-91110824D01*
X145866500Y-91154791D01*
X145866500Y-93469405D01*
X145846498Y-93537526D01*
X145829595Y-93558500D01*
X133047500Y-106340595D01*
X132985188Y-106374621D01*
X132958405Y-106377500D01*
X132253866Y-106377500D01*
X132191684Y-106384255D01*
X132055295Y-106435385D01*
X131938739Y-106522739D01*
X131851385Y-106639295D01*
X131800255Y-106775684D01*
X131793500Y-106837866D01*
X131793500Y-109134134D01*
X128016500Y-109134134D01*
X128016500Y-96517347D01*
X138811147Y-96517347D01*
X138830522Y-96738810D01*
X138888060Y-96953543D01*
X138890382Y-96958524D01*
X138890383Y-96958525D01*
X138979686Y-97150036D01*
X138979689Y-97150041D01*
X138982012Y-97155023D01*
X139109523Y-97337128D01*
X139266719Y-97494324D01*
X139271227Y-97497481D01*
X139271230Y-97497483D01*
X139346995Y-97550534D01*
X139448823Y-97621835D01*
X139453805Y-97624158D01*
X139453810Y-97624161D01*
X139645322Y-97713464D01*
X139650304Y-97715787D01*
X139655612Y-97717209D01*
X139655614Y-97717210D01*
X139721449Y-97734850D01*
X139865037Y-97773325D01*
X140086500Y-97792700D01*
X140307963Y-97773325D01*
X140451551Y-97734850D01*
X140517386Y-97717210D01*
X140517388Y-97717209D01*
X140522696Y-97715787D01*
X140527678Y-97713464D01*
X140719190Y-97624161D01*
X140719195Y-97624158D01*
X140724177Y-97621835D01*
X140826005Y-97550534D01*
X140901770Y-97497483D01*
X140901773Y-97497481D01*
X140906281Y-97494324D01*
X141063477Y-97337128D01*
X141190988Y-97155023D01*
X141193311Y-97150041D01*
X141193314Y-97150036D01*
X141282617Y-96958525D01*
X141282618Y-96958524D01*
X141284940Y-96953543D01*
X141342478Y-96738810D01*
X141361853Y-96517347D01*
X141342478Y-96295884D01*
X141284940Y-96081151D01*
X141282617Y-96076169D01*
X141193314Y-95884658D01*
X141193311Y-95884653D01*
X141190988Y-95879671D01*
X141063477Y-95697566D01*
X140906281Y-95540370D01*
X140901773Y-95537213D01*
X140901770Y-95537211D01*
X140826005Y-95484160D01*
X140724177Y-95412859D01*
X140719195Y-95410536D01*
X140719190Y-95410533D01*
X140613535Y-95361266D01*
X140560250Y-95314349D01*
X140540789Y-95246072D01*
X140561331Y-95178112D01*
X140613535Y-95132876D01*
X140718945Y-95083723D01*
X140728431Y-95078245D01*
X140772264Y-95047554D01*
X140780639Y-95037076D01*
X140773571Y-95023628D01*
X140099312Y-94349369D01*
X140085368Y-94341755D01*
X140083535Y-94341886D01*
X140076920Y-94346137D01*
X139398707Y-95024350D01*
X139392277Y-95036124D01*
X139401574Y-95048140D01*
X139444569Y-95078245D01*
X139454055Y-95083723D01*
X139559465Y-95132876D01*
X139612750Y-95179793D01*
X139632211Y-95248070D01*
X139611669Y-95316030D01*
X139559465Y-95361266D01*
X139453811Y-95410533D01*
X139453806Y-95410536D01*
X139448824Y-95412859D01*
X139444317Y-95416015D01*
X139444315Y-95416016D01*
X139271230Y-95537211D01*
X139271227Y-95537213D01*
X139266719Y-95540370D01*
X139109523Y-95697566D01*
X138982012Y-95879671D01*
X138979689Y-95884653D01*
X138979686Y-95884658D01*
X138890383Y-96076169D01*
X138888060Y-96081151D01*
X138830522Y-96295884D01*
X138811147Y-96517347D01*
X128016500Y-96517347D01*
X128016500Y-93982822D01*
X138812128Y-93982822D01*
X138830538Y-94193243D01*
X138832441Y-94204038D01*
X138887109Y-94408062D01*
X138890855Y-94418354D01*
X138980123Y-94609788D01*
X138985603Y-94619279D01*
X139016294Y-94663112D01*
X139026771Y-94671487D01*
X139040218Y-94664419D01*
X139714478Y-93990159D01*
X139720856Y-93978479D01*
X140450908Y-93978479D01*
X140451039Y-93980312D01*
X140455290Y-93986927D01*
X141133503Y-94665140D01*
X141145277Y-94671570D01*
X141157293Y-94662273D01*
X141187397Y-94619279D01*
X141192877Y-94609788D01*
X141282145Y-94418354D01*
X141285891Y-94408062D01*
X141340559Y-94204038D01*
X141342462Y-94193243D01*
X141360872Y-93982822D01*
X141360872Y-93971872D01*
X141342462Y-93761451D01*
X141340559Y-93750656D01*
X141285891Y-93546632D01*
X141282145Y-93536340D01*
X141192877Y-93344906D01*
X141187397Y-93335415D01*
X141156706Y-93291582D01*
X141146229Y-93283207D01*
X141132782Y-93290275D01*
X140458522Y-93964535D01*
X140450908Y-93978479D01*
X139720856Y-93978479D01*
X139722092Y-93976215D01*
X139721961Y-93974382D01*
X139717710Y-93967767D01*
X139039497Y-93289554D01*
X139027723Y-93283124D01*
X139015707Y-93292421D01*
X138985603Y-93335415D01*
X138980123Y-93344906D01*
X138890855Y-93536340D01*
X138887109Y-93546632D01*
X138832441Y-93750656D01*
X138830538Y-93761451D01*
X138812128Y-93971872D01*
X138812128Y-93982822D01*
X128016500Y-93982822D01*
X128016500Y-91437347D01*
X138811147Y-91437347D01*
X138830522Y-91658810D01*
X138888060Y-91873543D01*
X138890382Y-91878524D01*
X138890383Y-91878525D01*
X138979686Y-92070036D01*
X138979689Y-92070041D01*
X138982012Y-92075023D01*
X139109523Y-92257128D01*
X139266719Y-92414324D01*
X139271227Y-92417481D01*
X139271230Y-92417483D01*
X139346995Y-92470534D01*
X139448823Y-92541835D01*
X139453805Y-92544158D01*
X139453810Y-92544161D01*
X139559465Y-92593428D01*
X139612750Y-92640345D01*
X139632211Y-92708622D01*
X139611669Y-92776582D01*
X139559465Y-92821818D01*
X139454059Y-92870970D01*
X139444568Y-92876450D01*
X139400735Y-92907141D01*
X139392360Y-92917618D01*
X139399428Y-92931065D01*
X140073688Y-93605325D01*
X140087632Y-93612939D01*
X140089465Y-93612808D01*
X140096080Y-93608557D01*
X140774293Y-92930344D01*
X140780723Y-92918570D01*
X140771426Y-92906554D01*
X140728431Y-92876449D01*
X140718945Y-92870971D01*
X140613535Y-92821818D01*
X140560250Y-92774901D01*
X140540789Y-92706624D01*
X140561331Y-92638664D01*
X140613535Y-92593428D01*
X140719190Y-92544161D01*
X140719195Y-92544158D01*
X140724177Y-92541835D01*
X140826005Y-92470534D01*
X140901770Y-92417483D01*
X140901773Y-92417481D01*
X140906281Y-92414324D01*
X141063477Y-92257128D01*
X141190988Y-92075023D01*
X141193311Y-92070041D01*
X141193314Y-92070036D01*
X141282617Y-91878525D01*
X141282618Y-91878524D01*
X141284940Y-91873543D01*
X141342478Y-91658810D01*
X141361853Y-91437347D01*
X141342478Y-91215884D01*
X141288579Y-91014731D01*
X141286363Y-91006461D01*
X141286362Y-91006459D01*
X141284940Y-91001151D01*
X141280244Y-90991081D01*
X141193314Y-90804658D01*
X141193311Y-90804653D01*
X141190988Y-90799671D01*
X141187831Y-90795162D01*
X141066636Y-90622077D01*
X141066634Y-90622074D01*
X141063477Y-90617566D01*
X140906281Y-90460370D01*
X140901773Y-90457213D01*
X140901770Y-90457211D01*
X140826005Y-90404160D01*
X140724177Y-90332859D01*
X140719195Y-90330536D01*
X140719190Y-90330533D01*
X140614127Y-90281542D01*
X140560842Y-90234625D01*
X140541381Y-90166348D01*
X140561923Y-90098388D01*
X140614127Y-90053152D01*
X140719190Y-90004161D01*
X140719195Y-90004158D01*
X140724177Y-90001835D01*
X140826005Y-89930534D01*
X140901770Y-89877483D01*
X140901773Y-89877481D01*
X140906281Y-89874324D01*
X141063477Y-89717128D01*
X141103281Y-89660283D01*
X141187831Y-89539532D01*
X141187832Y-89539530D01*
X141190988Y-89535023D01*
X141193311Y-89530041D01*
X141193314Y-89530036D01*
X141282617Y-89338525D01*
X141282618Y-89338524D01*
X141284940Y-89333543D01*
X141342478Y-89118810D01*
X141361853Y-88897347D01*
X141342478Y-88675884D01*
X141304003Y-88532296D01*
X141286363Y-88466461D01*
X141286362Y-88466459D01*
X141284940Y-88461151D01*
X141274137Y-88437984D01*
X141193314Y-88264658D01*
X141193311Y-88264653D01*
X141190988Y-88259671D01*
X141187831Y-88255162D01*
X141066636Y-88082077D01*
X141066634Y-88082074D01*
X141063477Y-88077566D01*
X140906281Y-87920370D01*
X140901773Y-87917213D01*
X140901770Y-87917211D01*
X140826005Y-87864160D01*
X140724177Y-87792859D01*
X140719195Y-87790536D01*
X140719190Y-87790533D01*
X140614127Y-87741542D01*
X140560842Y-87694625D01*
X140541381Y-87626348D01*
X140561923Y-87558388D01*
X140614127Y-87513152D01*
X140719190Y-87464161D01*
X140719195Y-87464158D01*
X140724177Y-87461835D01*
X140826005Y-87390534D01*
X140901770Y-87337483D01*
X140901773Y-87337481D01*
X140906281Y-87334324D01*
X141063477Y-87177128D01*
X141078654Y-87155454D01*
X141187831Y-86999532D01*
X141187832Y-86999530D01*
X141190988Y-86995023D01*
X141193311Y-86990041D01*
X141193314Y-86990036D01*
X141282617Y-86798525D01*
X141282618Y-86798524D01*
X141284940Y-86793543D01*
X141342478Y-86578810D01*
X141361853Y-86357347D01*
X141342478Y-86135884D01*
X141284940Y-85921151D01*
X141273561Y-85896749D01*
X141193314Y-85724658D01*
X141193311Y-85724653D01*
X141190988Y-85719671D01*
X141140584Y-85647686D01*
X141066636Y-85542077D01*
X141066634Y-85542074D01*
X141063477Y-85537566D01*
X140906281Y-85380370D01*
X140901773Y-85377213D01*
X140901770Y-85377211D01*
X140757551Y-85276228D01*
X140724177Y-85252859D01*
X140719195Y-85250536D01*
X140719190Y-85250533D01*
X140614127Y-85201542D01*
X140560842Y-85154625D01*
X140541381Y-85086348D01*
X140561923Y-85018388D01*
X140614127Y-84973152D01*
X140719190Y-84924161D01*
X140719195Y-84924158D01*
X140724177Y-84921835D01*
X140826005Y-84850534D01*
X140901770Y-84797483D01*
X140901773Y-84797481D01*
X140906281Y-84794324D01*
X141063477Y-84637128D01*
X141134697Y-84535416D01*
X141156291Y-84504576D01*
X141211748Y-84460248D01*
X141259504Y-84450847D01*
X142669378Y-84450847D01*
X142737499Y-84470849D01*
X142783992Y-84524505D01*
X142795378Y-84576847D01*
X142795379Y-84894626D01*
X142795379Y-85212728D01*
X142795573Y-85215193D01*
X142797650Y-85241591D01*
X142798204Y-85248639D01*
X142842860Y-85402343D01*
X142846894Y-85409164D01*
X142920302Y-85533293D01*
X142920305Y-85533297D01*
X142924336Y-85540113D01*
X143037515Y-85653292D01*
X143044331Y-85657323D01*
X143044335Y-85657326D01*
X143142133Y-85715162D01*
X143175285Y-85734768D01*
X143182895Y-85736979D01*
X143322806Y-85777628D01*
X143322809Y-85777629D01*
X143328989Y-85779424D01*
X143341640Y-85780420D01*
X143362440Y-85782057D01*
X143362453Y-85782058D01*
X143364899Y-85782250D01*
X143803611Y-85782250D01*
X144242856Y-85782249D01*
X144250644Y-85781636D01*
X144272352Y-85779929D01*
X144272355Y-85779928D01*
X144278767Y-85779424D01*
X144432471Y-85734768D01*
X144465623Y-85715162D01*
X144563421Y-85657326D01*
X144563425Y-85657323D01*
X144570241Y-85653292D01*
X144649783Y-85573750D01*
X144712095Y-85539724D01*
X144782910Y-85544789D01*
X144827973Y-85573750D01*
X144907515Y-85653292D01*
X144914331Y-85657323D01*
X144914335Y-85657326D01*
X145012133Y-85715162D01*
X145045285Y-85734768D01*
X145052895Y-85736979D01*
X145192806Y-85777628D01*
X145192809Y-85777629D01*
X145198989Y-85779424D01*
X145211640Y-85780420D01*
X145232440Y-85782057D01*
X145232453Y-85782058D01*
X145234899Y-85782250D01*
X145673611Y-85782250D01*
X146112856Y-85782249D01*
X146120644Y-85781636D01*
X146142352Y-85779929D01*
X146142355Y-85779928D01*
X146148767Y-85779424D01*
X146302471Y-85734768D01*
X146335623Y-85715162D01*
X146433421Y-85657326D01*
X146433425Y-85657323D01*
X146440241Y-85653292D01*
X146544410Y-85549123D01*
X146606722Y-85515097D01*
X146633505Y-85512218D01*
X148133061Y-85512218D01*
X148201182Y-85532220D01*
X148236274Y-85565947D01*
X148340756Y-85715162D01*
X148346302Y-85723083D01*
X148508212Y-85884993D01*
X148695777Y-86016328D01*
X148700759Y-86018651D01*
X148700764Y-86018654D01*
X148866532Y-86095952D01*
X148903300Y-86113097D01*
X148908608Y-86114519D01*
X148908610Y-86114520D01*
X149119158Y-86170936D01*
X149119160Y-86170936D01*
X149124473Y-86172360D01*
X149352577Y-86192317D01*
X149580681Y-86172360D01*
X149585994Y-86170936D01*
X149585996Y-86170936D01*
X149796544Y-86114520D01*
X149796546Y-86114519D01*
X149801854Y-86113097D01*
X149838622Y-86095952D01*
X150004390Y-86018654D01*
X150004395Y-86018651D01*
X150009377Y-86016328D01*
X150046492Y-85990340D01*
X153395894Y-85990340D01*
X153405190Y-86002355D01*
X153456416Y-86038224D01*
X153465911Y-86043707D01*
X153663385Y-86135791D01*
X153673677Y-86139537D01*
X153884141Y-86195930D01*
X153894936Y-86197833D01*
X154111998Y-86216824D01*
X154122948Y-86216824D01*
X154340010Y-86197833D01*
X154350805Y-86195930D01*
X154561269Y-86139537D01*
X154571561Y-86135791D01*
X154769035Y-86043707D01*
X154778530Y-86038224D01*
X154830594Y-86001768D01*
X154838969Y-85991291D01*
X154831901Y-85977844D01*
X154130285Y-85276228D01*
X154116341Y-85268614D01*
X154114508Y-85268745D01*
X154107893Y-85272996D01*
X153402324Y-85978565D01*
X153395894Y-85990340D01*
X150046492Y-85990340D01*
X150196942Y-85884993D01*
X150358852Y-85723083D01*
X150364399Y-85715162D01*
X150487030Y-85540026D01*
X150487031Y-85540024D01*
X150490187Y-85535517D01*
X150492510Y-85530535D01*
X150492513Y-85530530D01*
X150584633Y-85332977D01*
X150584634Y-85332976D01*
X150586956Y-85327995D01*
X150608220Y-85248639D01*
X150644795Y-85112137D01*
X150644795Y-85112135D01*
X150646219Y-85106822D01*
X150663467Y-84909681D01*
X152804855Y-84909681D01*
X152823846Y-85126743D01*
X152825749Y-85137538D01*
X152882142Y-85348002D01*
X152885888Y-85358294D01*
X152977972Y-85555766D01*
X152983455Y-85565263D01*
X153019911Y-85617327D01*
X153030388Y-85625702D01*
X153043836Y-85618633D01*
X153745451Y-84917018D01*
X153751829Y-84905338D01*
X154481881Y-84905338D01*
X154482012Y-84907171D01*
X154486263Y-84913786D01*
X155191832Y-85619355D01*
X155203607Y-85625785D01*
X155215622Y-85616489D01*
X155251491Y-85565263D01*
X155256974Y-85555766D01*
X155349058Y-85358294D01*
X155352804Y-85348002D01*
X155409197Y-85137538D01*
X155411100Y-85126743D01*
X155430091Y-84909681D01*
X155430091Y-84898731D01*
X155411100Y-84681669D01*
X155409197Y-84670874D01*
X155352804Y-84460410D01*
X155349058Y-84450118D01*
X155256974Y-84252646D01*
X155251491Y-84243149D01*
X155215035Y-84191085D01*
X155204558Y-84182710D01*
X155191110Y-84189779D01*
X154489495Y-84891394D01*
X154481881Y-84905338D01*
X153751829Y-84905338D01*
X153753065Y-84903074D01*
X153752934Y-84901241D01*
X153748683Y-84894626D01*
X153043114Y-84189057D01*
X153031339Y-84182627D01*
X153019324Y-84191923D01*
X152983455Y-84243149D01*
X152977972Y-84252646D01*
X152885888Y-84450118D01*
X152882142Y-84460410D01*
X152825749Y-84670874D01*
X152823846Y-84681669D01*
X152804855Y-84898731D01*
X152804855Y-84909681D01*
X150663467Y-84909681D01*
X150666176Y-84878718D01*
X150646219Y-84650614D01*
X150643650Y-84641025D01*
X150588379Y-84434751D01*
X150588378Y-84434749D01*
X150586956Y-84429441D01*
X150507257Y-84258525D01*
X150492513Y-84226906D01*
X150492510Y-84226901D01*
X150490187Y-84221919D01*
X150468597Y-84191085D01*
X150362011Y-84038864D01*
X150362009Y-84038861D01*
X150358852Y-84034353D01*
X150196942Y-83872443D01*
X150117934Y-83817121D01*
X153395977Y-83817121D01*
X153403046Y-83830569D01*
X154104661Y-84532184D01*
X154118605Y-84539798D01*
X154120438Y-84539667D01*
X154127053Y-84535416D01*
X154832622Y-83829847D01*
X154839052Y-83818072D01*
X154829756Y-83806057D01*
X154778530Y-83770188D01*
X154769035Y-83764705D01*
X154571561Y-83672621D01*
X154561269Y-83668875D01*
X154350805Y-83612482D01*
X154340010Y-83610579D01*
X154122948Y-83591588D01*
X154111998Y-83591588D01*
X153894936Y-83610579D01*
X153884141Y-83612482D01*
X153673677Y-83668875D01*
X153663385Y-83672621D01*
X153465913Y-83764705D01*
X153456416Y-83770188D01*
X153404352Y-83806644D01*
X153395977Y-83817121D01*
X150117934Y-83817121D01*
X150009377Y-83741108D01*
X150004395Y-83738785D01*
X150004390Y-83738782D01*
X149806836Y-83646662D01*
X149806835Y-83646662D01*
X149801854Y-83644339D01*
X149796546Y-83642917D01*
X149796544Y-83642916D01*
X149585996Y-83586500D01*
X149585994Y-83586500D01*
X149580681Y-83585076D01*
X149352577Y-83565119D01*
X149124473Y-83585076D01*
X149119160Y-83586500D01*
X149119158Y-83586500D01*
X148908610Y-83642916D01*
X148908608Y-83642917D01*
X148903300Y-83644339D01*
X148898319Y-83646661D01*
X148898318Y-83646662D01*
X148700765Y-83738782D01*
X148700760Y-83738785D01*
X148695778Y-83741108D01*
X148691271Y-83744264D01*
X148691269Y-83744265D01*
X148512723Y-83869284D01*
X148512720Y-83869286D01*
X148508212Y-83872443D01*
X148346302Y-84034353D01*
X148343145Y-84038861D01*
X148343143Y-84038864D01*
X148236274Y-84191489D01*
X148180817Y-84235817D01*
X148133061Y-84245218D01*
X146808377Y-84245218D01*
X146740256Y-84225216D01*
X146693763Y-84171560D01*
X146682377Y-84119218D01*
X146682377Y-83914772D01*
X146679552Y-83878861D01*
X146646386Y-83764705D01*
X146637107Y-83732767D01*
X146634896Y-83725157D01*
X146603827Y-83672621D01*
X146557454Y-83594207D01*
X146557451Y-83594203D01*
X146553420Y-83587387D01*
X146440241Y-83474208D01*
X146433425Y-83470177D01*
X146433421Y-83470174D01*
X146309292Y-83396766D01*
X146309293Y-83396766D01*
X146302471Y-83392732D01*
X146294861Y-83390521D01*
X146154950Y-83349872D01*
X146154947Y-83349871D01*
X146148767Y-83348076D01*
X146136116Y-83347080D01*
X146115316Y-83345443D01*
X146115303Y-83345442D01*
X146112857Y-83345250D01*
X145674145Y-83345250D01*
X145234900Y-83345251D01*
X145227112Y-83345864D01*
X145205404Y-83347571D01*
X145205401Y-83347572D01*
X145198989Y-83348076D01*
X145102294Y-83376169D01*
X145066870Y-83386461D01*
X145045285Y-83392732D01*
X145038463Y-83396766D01*
X145038464Y-83396766D01*
X144914335Y-83470174D01*
X144914331Y-83470177D01*
X144907515Y-83474208D01*
X144827973Y-83553750D01*
X144765661Y-83587776D01*
X144694846Y-83582711D01*
X144649783Y-83553750D01*
X144570241Y-83474208D01*
X144563425Y-83470177D01*
X144563421Y-83470174D01*
X144439292Y-83396766D01*
X144439293Y-83396766D01*
X144432471Y-83392732D01*
X144424861Y-83390521D01*
X144284950Y-83349872D01*
X144284947Y-83349871D01*
X144278767Y-83348076D01*
X144266116Y-83347080D01*
X144245316Y-83345443D01*
X144245303Y-83345442D01*
X144242857Y-83345250D01*
X144206136Y-83345250D01*
X143530060Y-83345251D01*
X143461939Y-83325249D01*
X143443807Y-83311101D01*
X143438575Y-83306188D01*
X143432796Y-83300761D01*
X143425850Y-83296942D01*
X143425847Y-83296940D01*
X143415041Y-83290999D01*
X143398522Y-83280148D01*
X143398058Y-83279788D01*
X143382516Y-83267733D01*
X143375247Y-83264588D01*
X143375243Y-83264585D01*
X143341938Y-83250173D01*
X143331288Y-83244956D01*
X143292535Y-83223652D01*
X143272912Y-83218614D01*
X143254209Y-83212210D01*
X143242895Y-83207314D01*
X143242894Y-83207314D01*
X143235620Y-83204166D01*
X143227797Y-83202927D01*
X143227787Y-83202924D01*
X143191951Y-83197248D01*
X143180331Y-83194842D01*
X143145186Y-83185819D01*
X143145185Y-83185819D01*
X143137505Y-83183847D01*
X143117251Y-83183847D01*
X143097540Y-83182296D01*
X143085361Y-83180367D01*
X143077532Y-83179127D01*
X143069640Y-83179873D01*
X143033514Y-83183288D01*
X143021656Y-83183847D01*
X141259504Y-83183847D01*
X141191383Y-83163845D01*
X141156291Y-83130118D01*
X141066636Y-83002077D01*
X141066634Y-83002074D01*
X141063477Y-82997566D01*
X140906281Y-82840370D01*
X140901773Y-82837213D01*
X140901770Y-82837211D01*
X140826005Y-82784160D01*
X140724177Y-82712859D01*
X140719195Y-82710536D01*
X140719190Y-82710533D01*
X140614127Y-82661542D01*
X140560842Y-82614625D01*
X140541381Y-82546348D01*
X140561923Y-82478388D01*
X140614127Y-82433152D01*
X140719190Y-82384161D01*
X140719195Y-82384158D01*
X140724177Y-82381835D01*
X140896691Y-82261039D01*
X140901770Y-82257483D01*
X140901773Y-82257481D01*
X140906281Y-82254324D01*
X141063477Y-82097128D01*
X141130301Y-82001694D01*
X141156291Y-81964576D01*
X141211748Y-81920248D01*
X141259504Y-81910847D01*
X142729022Y-81910847D01*
X142797143Y-81930849D01*
X142843636Y-81984505D01*
X142850019Y-82001694D01*
X142879638Y-82103640D01*
X142883982Y-82118593D01*
X142888016Y-82125414D01*
X142961424Y-82249543D01*
X142961427Y-82249547D01*
X142965458Y-82256363D01*
X143078637Y-82369542D01*
X143085453Y-82373573D01*
X143085457Y-82373576D01*
X143186197Y-82433152D01*
X143216407Y-82451018D01*
X143224017Y-82453229D01*
X143363928Y-82493878D01*
X143363931Y-82493879D01*
X143370111Y-82495674D01*
X143382762Y-82496670D01*
X143403562Y-82498307D01*
X143403575Y-82498308D01*
X143406021Y-82498500D01*
X143844733Y-82498500D01*
X144283978Y-82498499D01*
X144291766Y-82497886D01*
X144313474Y-82496179D01*
X144313477Y-82496178D01*
X144319889Y-82495674D01*
X144473593Y-82451018D01*
X144503803Y-82433152D01*
X144604543Y-82373576D01*
X144604547Y-82373573D01*
X144611363Y-82369542D01*
X144690905Y-82290000D01*
X144753217Y-82255974D01*
X144824032Y-82261039D01*
X144869095Y-82290000D01*
X144948637Y-82369542D01*
X144955453Y-82373573D01*
X144955457Y-82373576D01*
X145056197Y-82433152D01*
X145086407Y-82451018D01*
X145094017Y-82453229D01*
X145233928Y-82493878D01*
X145233931Y-82493879D01*
X145240111Y-82495674D01*
X145252762Y-82496670D01*
X145273562Y-82498307D01*
X145273575Y-82498308D01*
X145276021Y-82498500D01*
X145714733Y-82498500D01*
X146153978Y-82498499D01*
X146161766Y-82497886D01*
X146183474Y-82496179D01*
X146183477Y-82496178D01*
X146189889Y-82495674D01*
X146343593Y-82451018D01*
X146373803Y-82433152D01*
X146474543Y-82373576D01*
X146474547Y-82373573D01*
X146481363Y-82369542D01*
X146594542Y-82256363D01*
X146598573Y-82249547D01*
X146598576Y-82249543D01*
X146671984Y-82125414D01*
X146676018Y-82118593D01*
X146683565Y-82092617D01*
X146718878Y-81971072D01*
X146718879Y-81971069D01*
X146720674Y-81964889D01*
X146721670Y-81952238D01*
X146723307Y-81931438D01*
X146723308Y-81931425D01*
X146723500Y-81928979D01*
X146723500Y-81828218D01*
X146743502Y-81760097D01*
X146797158Y-81713604D01*
X146849500Y-81702218D01*
X148133061Y-81702218D01*
X148201182Y-81722220D01*
X148236274Y-81755947D01*
X148346302Y-81913083D01*
X148508212Y-82074993D01*
X148512720Y-82078150D01*
X148512723Y-82078152D01*
X148539047Y-82096584D01*
X148695777Y-82206328D01*
X148700759Y-82208651D01*
X148700764Y-82208654D01*
X148815100Y-82261969D01*
X148903300Y-82303097D01*
X148908608Y-82304519D01*
X148908610Y-82304520D01*
X149119158Y-82360936D01*
X149119160Y-82360936D01*
X149124473Y-82362360D01*
X149352577Y-82382317D01*
X149580681Y-82362360D01*
X149585994Y-82360936D01*
X149585996Y-82360936D01*
X149796544Y-82304520D01*
X149796546Y-82304519D01*
X149801854Y-82303097D01*
X149890054Y-82261969D01*
X150004390Y-82208654D01*
X150004395Y-82208651D01*
X150009377Y-82206328D01*
X150166107Y-82096584D01*
X150192431Y-82078152D01*
X150192434Y-82078150D01*
X150196942Y-82074993D01*
X150358852Y-81913083D01*
X150490187Y-81725517D01*
X150492510Y-81720535D01*
X150492513Y-81720530D01*
X150584633Y-81522977D01*
X150584634Y-81522976D01*
X150586956Y-81517995D01*
X150637966Y-81327625D01*
X150644795Y-81302137D01*
X150644795Y-81302135D01*
X150646219Y-81296822D01*
X150666176Y-81068718D01*
X150646219Y-80840614D01*
X150644795Y-80835299D01*
X150588379Y-80624751D01*
X150588378Y-80624749D01*
X150586956Y-80619441D01*
X150575611Y-80595111D01*
X150492513Y-80416906D01*
X150492510Y-80416901D01*
X150490187Y-80411919D01*
X150463186Y-80373357D01*
X150362011Y-80228864D01*
X150362009Y-80228861D01*
X150358852Y-80224353D01*
X150196942Y-80062443D01*
X150161612Y-80037704D01*
X150045777Y-79956596D01*
X150009377Y-79931108D01*
X150004395Y-79928785D01*
X150004390Y-79928782D01*
X149806836Y-79836662D01*
X149806835Y-79836662D01*
X149801854Y-79834339D01*
X149796546Y-79832917D01*
X149796544Y-79832916D01*
X149585996Y-79776500D01*
X149585994Y-79776500D01*
X149580681Y-79775076D01*
X149352577Y-79755119D01*
X149124473Y-79775076D01*
X149119160Y-79776500D01*
X149119158Y-79776500D01*
X148908610Y-79832916D01*
X148908608Y-79832917D01*
X148903300Y-79834339D01*
X148898319Y-79836661D01*
X148898318Y-79836662D01*
X148700765Y-79928782D01*
X148700760Y-79928785D01*
X148695778Y-79931108D01*
X148691271Y-79934264D01*
X148691269Y-79934265D01*
X148512723Y-80059284D01*
X148512720Y-80059286D01*
X148508212Y-80062443D01*
X148346302Y-80224353D01*
X148343145Y-80228861D01*
X148343143Y-80228864D01*
X148236274Y-80381489D01*
X148180817Y-80425817D01*
X148133061Y-80435218D01*
X146744228Y-80435218D01*
X146676107Y-80415216D01*
X146635774Y-80373357D01*
X146598576Y-80310458D01*
X146598576Y-80310457D01*
X146594542Y-80303637D01*
X146481363Y-80190458D01*
X146474547Y-80186427D01*
X146474543Y-80186424D01*
X146354846Y-80115637D01*
X146343593Y-80108982D01*
X146284550Y-80091828D01*
X146196072Y-80066122D01*
X146196069Y-80066121D01*
X146189889Y-80064326D01*
X146177238Y-80063330D01*
X146156438Y-80061693D01*
X146156425Y-80061692D01*
X146153979Y-80061500D01*
X145715267Y-80061500D01*
X145276022Y-80061501D01*
X145268234Y-80062114D01*
X145246526Y-80063821D01*
X145246523Y-80063822D01*
X145240111Y-80064326D01*
X145086407Y-80108982D01*
X145075154Y-80115637D01*
X144955457Y-80186424D01*
X144955453Y-80186427D01*
X144948637Y-80190458D01*
X144869095Y-80270000D01*
X144806783Y-80304026D01*
X144735968Y-80298961D01*
X144690905Y-80270000D01*
X144611363Y-80190458D01*
X144604547Y-80186427D01*
X144604543Y-80186424D01*
X144484846Y-80115637D01*
X144473593Y-80108982D01*
X144414550Y-80091828D01*
X144326072Y-80066122D01*
X144326069Y-80066121D01*
X144319889Y-80064326D01*
X144307238Y-80063330D01*
X144286438Y-80061693D01*
X144286425Y-80061692D01*
X144283979Y-80061500D01*
X143845267Y-80061500D01*
X143406022Y-80061501D01*
X143398234Y-80062114D01*
X143376526Y-80063821D01*
X143376523Y-80063822D01*
X143370111Y-80064326D01*
X143216407Y-80108982D01*
X143205154Y-80115637D01*
X143085457Y-80186424D01*
X143085453Y-80186427D01*
X143078637Y-80190458D01*
X142965458Y-80303637D01*
X142961427Y-80310453D01*
X142961424Y-80310457D01*
X142901421Y-80411919D01*
X142883982Y-80441407D01*
X142881771Y-80449017D01*
X142851560Y-80553001D01*
X142813346Y-80612836D01*
X142748850Y-80642513D01*
X142730563Y-80643847D01*
X141259504Y-80643847D01*
X141191383Y-80623845D01*
X141156291Y-80590118D01*
X141066636Y-80462077D01*
X141066634Y-80462074D01*
X141063477Y-80457566D01*
X140906281Y-80300370D01*
X140901773Y-80297213D01*
X140901770Y-80297211D01*
X140815865Y-80237060D01*
X140771537Y-80181603D01*
X140764228Y-80110984D01*
X140796259Y-80047623D01*
X140857460Y-80011638D01*
X140888136Y-80007847D01*
X140896634Y-80007847D01*
X140958816Y-80001092D01*
X141095205Y-79949962D01*
X141211761Y-79862608D01*
X141299115Y-79746052D01*
X141350245Y-79609663D01*
X141357000Y-79547481D01*
X141357000Y-79496847D01*
X141377002Y-79428726D01*
X141430658Y-79382233D01*
X141483000Y-79370847D01*
X151446020Y-79370847D01*
X151514141Y-79390849D01*
X151535115Y-79407752D01*
X152808239Y-80680876D01*
X152842265Y-80743188D01*
X152840851Y-80802582D01*
X152829192Y-80846094D01*
X152823831Y-80866102D01*
X152803874Y-81094206D01*
X152823831Y-81322310D01*
X152825255Y-81327623D01*
X152825255Y-81327625D01*
X152876265Y-81517995D01*
X152883094Y-81543483D01*
X152885416Y-81548464D01*
X152885417Y-81548465D01*
X152977537Y-81746018D01*
X152977540Y-81746023D01*
X152979863Y-81751005D01*
X152983019Y-81755512D01*
X152983020Y-81755514D01*
X153104482Y-81928979D01*
X153111198Y-81938571D01*
X153273108Y-82100481D01*
X153277616Y-82103638D01*
X153277619Y-82103640D01*
X153308716Y-82125414D01*
X153460673Y-82231816D01*
X153465655Y-82234139D01*
X153465660Y-82234142D01*
X153613536Y-82303097D01*
X153668196Y-82328585D01*
X153673504Y-82330007D01*
X153673506Y-82330008D01*
X153884054Y-82386424D01*
X153884056Y-82386424D01*
X153889369Y-82387848D01*
X154117473Y-82407805D01*
X154345577Y-82387848D01*
X154350890Y-82386424D01*
X154350892Y-82386424D01*
X154561440Y-82330008D01*
X154561442Y-82330007D01*
X154566750Y-82328585D01*
X154621410Y-82303097D01*
X154769286Y-82234142D01*
X154769291Y-82234139D01*
X154774273Y-82231816D01*
X154926230Y-82125414D01*
X154957327Y-82103640D01*
X154957330Y-82103638D01*
X154961838Y-82100481D01*
X155123748Y-81938571D01*
X155130465Y-81928979D01*
X155251926Y-81755514D01*
X155251927Y-81755512D01*
X155255083Y-81751005D01*
X155257406Y-81746023D01*
X155257409Y-81746018D01*
X155349529Y-81548465D01*
X155349530Y-81548464D01*
X155351852Y-81543483D01*
X155358682Y-81517995D01*
X155409691Y-81327625D01*
X155409691Y-81327623D01*
X155411115Y-81322310D01*
X155431072Y-81094206D01*
X155411115Y-80866102D01*
X155405754Y-80846094D01*
X155353275Y-80650239D01*
X155353274Y-80650237D01*
X155351852Y-80644929D01*
X155342443Y-80624751D01*
X155257409Y-80442394D01*
X155257406Y-80442389D01*
X155255083Y-80437407D01*
X155210235Y-80373357D01*
X155126907Y-80254352D01*
X155126905Y-80254349D01*
X155123748Y-80249841D01*
X154961838Y-80087931D01*
X154953957Y-80082412D01*
X154848179Y-80008346D01*
X154774273Y-79956596D01*
X154769291Y-79954273D01*
X154769286Y-79954270D01*
X154571732Y-79862150D01*
X154571731Y-79862150D01*
X154566750Y-79859827D01*
X154561442Y-79858405D01*
X154561440Y-79858404D01*
X154350892Y-79801988D01*
X154350890Y-79801988D01*
X154345577Y-79800564D01*
X154117473Y-79780607D01*
X153889369Y-79800564D01*
X153884056Y-79801988D01*
X153884054Y-79801988D01*
X153825849Y-79817584D01*
X153754872Y-79815894D01*
X153704143Y-79784972D01*
X152264266Y-78345094D01*
X152256726Y-78336808D01*
X152252614Y-78330329D01*
X152202962Y-78283703D01*
X152200121Y-78280949D01*
X152180384Y-78261212D01*
X152177187Y-78258732D01*
X152168165Y-78251027D01*
X152141714Y-78226188D01*
X152135935Y-78220761D01*
X152128989Y-78216942D01*
X152128986Y-78216940D01*
X152118180Y-78210999D01*
X152101661Y-78200148D01*
X152101197Y-78199788D01*
X152085655Y-78187733D01*
X152078386Y-78184588D01*
X152078382Y-78184585D01*
X152045077Y-78170173D01*
X152034427Y-78164956D01*
X151995674Y-78143652D01*
X151976051Y-78138614D01*
X151957348Y-78132210D01*
X151946034Y-78127314D01*
X151946033Y-78127314D01*
X151938759Y-78124166D01*
X151930936Y-78122927D01*
X151930926Y-78122924D01*
X151895090Y-78117248D01*
X151883470Y-78114842D01*
X151848325Y-78105819D01*
X151848324Y-78105819D01*
X151840644Y-78103847D01*
X151820390Y-78103847D01*
X151800679Y-78102296D01*
X151788500Y-78100367D01*
X151780671Y-78099127D01*
X151772779Y-78099873D01*
X151736653Y-78103288D01*
X151724795Y-78103847D01*
X141483000Y-78103847D01*
X141414879Y-78083845D01*
X141368386Y-78030189D01*
X141357000Y-77977847D01*
X141357000Y-77927213D01*
X141350245Y-77865031D01*
X141299115Y-77728642D01*
X141211761Y-77612086D01*
X141095205Y-77524732D01*
X140958816Y-77473602D01*
X140896634Y-77466847D01*
X139276366Y-77466847D01*
X139214184Y-77473602D01*
X139077795Y-77524732D01*
X138961239Y-77612086D01*
X138873885Y-77728642D01*
X138822755Y-77865031D01*
X138816000Y-77927213D01*
X138816000Y-79547481D01*
X138822755Y-79609663D01*
X138873885Y-79746052D01*
X138961239Y-79862608D01*
X139077795Y-79949962D01*
X139214184Y-80001092D01*
X139276366Y-80007847D01*
X139284864Y-80007847D01*
X139352985Y-80027849D01*
X139399478Y-80081505D01*
X139409582Y-80151779D01*
X139380088Y-80216359D01*
X139357135Y-80237060D01*
X139271230Y-80297211D01*
X139271227Y-80297213D01*
X139266719Y-80300370D01*
X139109523Y-80457566D01*
X139106366Y-80462074D01*
X139106364Y-80462077D01*
X138996177Y-80619441D01*
X138982012Y-80639671D01*
X138979689Y-80644653D01*
X138979686Y-80644658D01*
X138933741Y-80743188D01*
X138888060Y-80841151D01*
X138886638Y-80846459D01*
X138886637Y-80846461D01*
X138881374Y-80866102D01*
X138830522Y-81055884D01*
X138811147Y-81277347D01*
X138830522Y-81498810D01*
X138888060Y-81713543D01*
X138890382Y-81718524D01*
X138890383Y-81718525D01*
X138979686Y-81910036D01*
X138979689Y-81910041D01*
X138982012Y-81915023D01*
X138985168Y-81919530D01*
X138985169Y-81919532D01*
X139042700Y-82001694D01*
X139109523Y-82097128D01*
X139266719Y-82254324D01*
X139271227Y-82257481D01*
X139271230Y-82257483D01*
X139276309Y-82261039D01*
X139448823Y-82381835D01*
X139453805Y-82384158D01*
X139453810Y-82384161D01*
X139558873Y-82433152D01*
X139612158Y-82480069D01*
X139631619Y-82548346D01*
X139611077Y-82616306D01*
X139558873Y-82661542D01*
X139453811Y-82710533D01*
X139453806Y-82710536D01*
X139448824Y-82712859D01*
X139444317Y-82716015D01*
X139444315Y-82716016D01*
X139271230Y-82837211D01*
X139271227Y-82837213D01*
X139266719Y-82840370D01*
X139109523Y-82997566D01*
X138982012Y-83179671D01*
X138979689Y-83184653D01*
X138979686Y-83184658D01*
X138890383Y-83376169D01*
X138888060Y-83381151D01*
X138830522Y-83595884D01*
X138811147Y-83817347D01*
X138830522Y-84038810D01*
X138866093Y-84171560D01*
X138880923Y-84226906D01*
X138888060Y-84253543D01*
X138890382Y-84258524D01*
X138890383Y-84258525D01*
X138979686Y-84450036D01*
X138979689Y-84450041D01*
X138982012Y-84455023D01*
X138985168Y-84459530D01*
X138985169Y-84459532D01*
X139038304Y-84535416D01*
X139109523Y-84637128D01*
X139266719Y-84794324D01*
X139271227Y-84797481D01*
X139271230Y-84797483D01*
X139346995Y-84850534D01*
X139448823Y-84921835D01*
X139453805Y-84924158D01*
X139453810Y-84924161D01*
X139558873Y-84973152D01*
X139612158Y-85020069D01*
X139631619Y-85088346D01*
X139611077Y-85156306D01*
X139558873Y-85201542D01*
X139453811Y-85250533D01*
X139453806Y-85250536D01*
X139448824Y-85252859D01*
X139444317Y-85256015D01*
X139444315Y-85256016D01*
X139271230Y-85377211D01*
X139271227Y-85377213D01*
X139266719Y-85380370D01*
X139109523Y-85537566D01*
X139106366Y-85542074D01*
X139106364Y-85542077D01*
X139032416Y-85647686D01*
X138982012Y-85719671D01*
X138979689Y-85724653D01*
X138979686Y-85724658D01*
X138899439Y-85896749D01*
X138888060Y-85921151D01*
X138830522Y-86135884D01*
X138811147Y-86357347D01*
X138830522Y-86578810D01*
X138888060Y-86793543D01*
X138890382Y-86798524D01*
X138890383Y-86798525D01*
X138979686Y-86990036D01*
X138979689Y-86990041D01*
X138982012Y-86995023D01*
X138985168Y-86999530D01*
X138985169Y-86999532D01*
X139094347Y-87155454D01*
X139109523Y-87177128D01*
X139266719Y-87334324D01*
X139271227Y-87337481D01*
X139271230Y-87337483D01*
X139346995Y-87390534D01*
X139448823Y-87461835D01*
X139453805Y-87464158D01*
X139453810Y-87464161D01*
X139558873Y-87513152D01*
X139612158Y-87560069D01*
X139631619Y-87628346D01*
X139611077Y-87696306D01*
X139558873Y-87741542D01*
X139453811Y-87790533D01*
X139453806Y-87790536D01*
X139448824Y-87792859D01*
X139444317Y-87796015D01*
X139444315Y-87796016D01*
X139271230Y-87917211D01*
X139271227Y-87917213D01*
X139266719Y-87920370D01*
X139109523Y-88077566D01*
X139106366Y-88082074D01*
X139106364Y-88082077D01*
X138985169Y-88255162D01*
X138982012Y-88259671D01*
X138979689Y-88264653D01*
X138979686Y-88264658D01*
X138898863Y-88437984D01*
X138888060Y-88461151D01*
X138886638Y-88466459D01*
X138886637Y-88466461D01*
X138868997Y-88532296D01*
X138830522Y-88675884D01*
X138811147Y-88897347D01*
X138830522Y-89118810D01*
X138888060Y-89333543D01*
X138890382Y-89338524D01*
X138890383Y-89338525D01*
X138979686Y-89530036D01*
X138979689Y-89530041D01*
X138982012Y-89535023D01*
X138985168Y-89539530D01*
X138985169Y-89539532D01*
X139069720Y-89660283D01*
X139109523Y-89717128D01*
X139266719Y-89874324D01*
X139271227Y-89877481D01*
X139271230Y-89877483D01*
X139346995Y-89930534D01*
X139448823Y-90001835D01*
X139453805Y-90004158D01*
X139453810Y-90004161D01*
X139558873Y-90053152D01*
X139612158Y-90100069D01*
X139631619Y-90168346D01*
X139611077Y-90236306D01*
X139558873Y-90281542D01*
X139453811Y-90330533D01*
X139453806Y-90330536D01*
X139448824Y-90332859D01*
X139444317Y-90336015D01*
X139444315Y-90336016D01*
X139271230Y-90457211D01*
X139271227Y-90457213D01*
X139266719Y-90460370D01*
X139109523Y-90617566D01*
X139106366Y-90622074D01*
X139106364Y-90622077D01*
X138985169Y-90795162D01*
X138982012Y-90799671D01*
X138979689Y-90804653D01*
X138979686Y-90804658D01*
X138892756Y-90991081D01*
X138888060Y-91001151D01*
X138886638Y-91006459D01*
X138886637Y-91006461D01*
X138884421Y-91014731D01*
X138830522Y-91215884D01*
X138811147Y-91437347D01*
X128016500Y-91437347D01*
X128016500Y-85993211D01*
X132238349Y-85993211D01*
X132248123Y-86204400D01*
X132297657Y-86409931D01*
X132385161Y-86602387D01*
X132507480Y-86774824D01*
X132660198Y-86921020D01*
X132837807Y-87035701D01*
X132843373Y-87037944D01*
X133028328Y-87112483D01*
X133028331Y-87112484D01*
X133033897Y-87114727D01*
X133137120Y-87134885D01*
X133236946Y-87154380D01*
X133236949Y-87154380D01*
X133241392Y-87155248D01*
X133246953Y-87155520D01*
X133402824Y-87155520D01*
X133560459Y-87140480D01*
X133763325Y-87080966D01*
X133851213Y-87035701D01*
X133945946Y-86986911D01*
X133945949Y-86986909D01*
X133951277Y-86984165D01*
X134117533Y-86853569D01*
X134174229Y-86788233D01*
X134252162Y-86698422D01*
X134256094Y-86693891D01*
X134361962Y-86510892D01*
X134431315Y-86311176D01*
X134448549Y-86192317D01*
X134460790Y-86107889D01*
X134460790Y-86107886D01*
X134461651Y-86101949D01*
X134451877Y-85890760D01*
X134426144Y-85783984D01*
X134403749Y-85691063D01*
X134402343Y-85685229D01*
X134389657Y-85657326D01*
X134336363Y-85540113D01*
X134314839Y-85492773D01*
X134192520Y-85320336D01*
X134039802Y-85174140D01*
X133862193Y-85059459D01*
X133753828Y-85015787D01*
X133671672Y-84982677D01*
X133671669Y-84982676D01*
X133666103Y-84980433D01*
X133542879Y-84956369D01*
X133463054Y-84940780D01*
X133463051Y-84940780D01*
X133458608Y-84939912D01*
X133453047Y-84939640D01*
X133297176Y-84939640D01*
X133139541Y-84954680D01*
X132936675Y-85014194D01*
X132931348Y-85016938D01*
X132931347Y-85016938D01*
X132754054Y-85108249D01*
X132754051Y-85108251D01*
X132748723Y-85110995D01*
X132582467Y-85241591D01*
X132578536Y-85246121D01*
X132578535Y-85246122D01*
X132559018Y-85268614D01*
X132443906Y-85401269D01*
X132338038Y-85584268D01*
X132268685Y-85783984D01*
X132267825Y-85789917D01*
X132267824Y-85789920D01*
X132239210Y-85987271D01*
X132238349Y-85993211D01*
X128016500Y-85993211D01*
X128016500Y-78992971D01*
X132238349Y-78992971D01*
X132248123Y-79204160D01*
X132297657Y-79409691D01*
X132300139Y-79415149D01*
X132300140Y-79415153D01*
X132337284Y-79496847D01*
X132385161Y-79602147D01*
X132507480Y-79774584D01*
X132660198Y-79920780D01*
X132837807Y-80035461D01*
X132843373Y-80037704D01*
X133028328Y-80112243D01*
X133028331Y-80112244D01*
X133033897Y-80114487D01*
X133137120Y-80134645D01*
X133236946Y-80154140D01*
X133236949Y-80154140D01*
X133241392Y-80155008D01*
X133246953Y-80155280D01*
X133402824Y-80155280D01*
X133560459Y-80140240D01*
X133763325Y-80080726D01*
X133775171Y-80074625D01*
X133945946Y-79986671D01*
X133945949Y-79986669D01*
X133951277Y-79983925D01*
X134117533Y-79853329D01*
X134130247Y-79838678D01*
X134238155Y-79714324D01*
X134256094Y-79693651D01*
X134361962Y-79510652D01*
X134431315Y-79310936D01*
X134450514Y-79178525D01*
X134460790Y-79107649D01*
X134460790Y-79107646D01*
X134461651Y-79101709D01*
X134451877Y-78890520D01*
X134426144Y-78783744D01*
X134403749Y-78690823D01*
X134402343Y-78684989D01*
X134314839Y-78492533D01*
X134192520Y-78320096D01*
X134039802Y-78173900D01*
X133862193Y-78059219D01*
X133756684Y-78016698D01*
X133671672Y-77982437D01*
X133671669Y-77982436D01*
X133666103Y-77980193D01*
X133542879Y-77956129D01*
X133463054Y-77940540D01*
X133463051Y-77940540D01*
X133458608Y-77939672D01*
X133453047Y-77939400D01*
X133297176Y-77939400D01*
X133139541Y-77954440D01*
X132936675Y-78013954D01*
X132931348Y-78016698D01*
X132931347Y-78016698D01*
X132754054Y-78108009D01*
X132754051Y-78108011D01*
X132748723Y-78110755D01*
X132582467Y-78241351D01*
X132578536Y-78245881D01*
X132578535Y-78245882D01*
X132530575Y-78301151D01*
X132443906Y-78401029D01*
X132338038Y-78584028D01*
X132268685Y-78783744D01*
X132267825Y-78789677D01*
X132267824Y-78789680D01*
X132239210Y-78987031D01*
X132238349Y-78992971D01*
X128016500Y-78992971D01*
X128016500Y-75971431D01*
X128036502Y-75903310D01*
X128090158Y-75856817D01*
X128142500Y-75845431D01*
X164973500Y-75845431D01*
X165041621Y-75865433D01*
G37*
%TD.AperFunction*%
%TD*%
M02*
