%TF.GenerationSoftware,KiCad,Pcbnew,(6.0.8)*%
%TF.CreationDate,2024-10-24T13:15:24+05:30*%
%TF.ProjectId,mp3_player,6d70335f-706c-4617-9965-722e6b696361,rev?*%
%TF.SameCoordinates,Original*%
%TF.FileFunction,Soldermask,Bot*%
%TF.FilePolarity,Negative*%
%FSLAX46Y46*%
G04 Gerber Fmt 4.6, Leading zero omitted, Abs format (unit mm)*
G04 Created by KiCad (PCBNEW (6.0.8)) date 2024-10-24 13:15:24*
%MOMM*%
%LPD*%
G01*
G04 APERTURE LIST*
G04 Aperture macros list*
%AMRoundRect*
0 Rectangle with rounded corners*
0 $1 Rounding radius*
0 $2 $3 $4 $5 $6 $7 $8 $9 X,Y pos of 4 corners*
0 Add a 4 corners polygon primitive as box body*
4,1,4,$2,$3,$4,$5,$6,$7,$8,$9,$2,$3,0*
0 Add four circle primitives for the rounded corners*
1,1,$1+$1,$2,$3*
1,1,$1+$1,$4,$5*
1,1,$1+$1,$6,$7*
1,1,$1+$1,$8,$9*
0 Add four rect primitives between the rounded corners*
20,1,$1+$1,$2,$3,$4,$5,0*
20,1,$1+$1,$4,$5,$6,$7,0*
20,1,$1+$1,$6,$7,$8,$9,0*
20,1,$1+$1,$8,$9,$2,$3,0*%
G04 Aperture macros list end*
%ADD10R,2.200000X2.200000*%
%ADD11C,2.200000*%
%ADD12R,1.524000X1.524000*%
%ADD13C,1.524000*%
%ADD14C,1.402080*%
%ADD15RoundRect,0.227000X0.375000X0.585000X-0.375000X0.585000X-0.375000X-0.585000X0.375000X-0.585000X0*%
%ADD16C,1.803400*%
%ADD17RoundRect,0.102000X0.395000X0.465000X-0.395000X0.465000X-0.395000X-0.465000X0.395000X-0.465000X0*%
G04 APERTURE END LIST*
D10*
%TO.C,S2*%
X143562000Y-103922000D03*
D11*
X150062000Y-103922000D03*
X143562000Y-108422000D03*
X150062000Y-108422000D03*
%TD*%
D10*
%TO.C,S3*%
X133402000Y-107986000D03*
D11*
X139902000Y-107986000D03*
X133402000Y-112486000D03*
X139902000Y-112486000D03*
%TD*%
D10*
%TO.C,S1*%
X160730000Y-112486000D03*
D11*
X154230000Y-112486000D03*
X160730000Y-107986000D03*
X154230000Y-107986000D03*
%TD*%
D12*
%TO.C,U1*%
X140086500Y-78737347D03*
D13*
X140086500Y-81277347D03*
X140086500Y-83817347D03*
X140086500Y-86357347D03*
X140086500Y-88897347D03*
X140086500Y-91437347D03*
X140086500Y-93977347D03*
X140086500Y-96517347D03*
X157546500Y-96517347D03*
X157546500Y-93977347D03*
X157546500Y-91437347D03*
X157546500Y-88897347D03*
X157546500Y-86357347D03*
X157546500Y-83817347D03*
X157546500Y-81277347D03*
X157546500Y-78737347D03*
%TD*%
D14*
%TO.C,J2*%
X133350000Y-86047580D03*
X133350000Y-79047340D03*
%TD*%
D15*
%TO.C,R1*%
X145673878Y-84563750D03*
X143803878Y-84563750D03*
%TD*%
%TO.C,R2*%
X145715000Y-81280000D03*
X143845000Y-81280000D03*
%TD*%
D16*
%TO.C,J3*%
X154117473Y-84904206D03*
X154117473Y-81094206D03*
%TD*%
%TO.C,J1*%
X149352577Y-84878718D03*
X149352577Y-81068718D03*
%TD*%
D17*
%TO.C,R3*%
X148140000Y-90170000D03*
X146500000Y-90170000D03*
%TD*%
M02*
